<svg width="21" height="17" viewBox="0 0 21 17" fill="none" xmlns="http://www.w3.org/2000/svg">
<path d="M1.23897 4.88326L9.12897 10.1433C9.45763 10.3625 9.84387 10.4796 10.239 10.4796C10.6341 10.4796 11.0203 10.3625 11.349 10.1433L19.239 4.88326M3.23897 15.8833H17.239C17.7694 15.8833 18.2781 15.6725 18.6532 15.2975C19.0283 14.9224 19.239 14.4137 19.239 13.8833V3.88326C19.239 3.35283 19.0283 2.84412 18.6532 2.46905C18.2781 2.09398 17.7694 1.88326 17.239 1.88326H3.23897C2.70853 1.88326 2.19983 2.09398 1.82475 2.46905C1.44968 2.84412 1.23897 3.35283 1.23897 3.88326V13.8833C1.23897 14.4137 1.44968 14.9224 1.82475 15.2975C2.19983 15.6725 2.70853 15.8833 3.23897 15.8833Z" stroke="#9E9E9E" stroke-width="2" stroke-linecap="round" stroke-linejoin="round"/>
</svg>
