<svg width="18" height="18" viewBox="0 0 18 18" fill="none" xmlns="http://www.w3.org/2000/svg">
<path d="M17.4881 7.37781C17.5932 7.98187 17.6455 8.59393 17.6445 9.20706C17.6445 11.9453 16.6658 14.2606 14.9625 15.8277H14.9648C13.4753 17.2036 11.4277 18.0001 9 18.0001C6.61305 18.0001 4.32387 17.0518 2.63604 15.364C0.948212 13.6762 0 11.387 0 9.00006C0 6.61311 0.948212 4.32393 2.63604 2.6361C4.32387 0.948273 6.61305 6.09157e-05 9 6.09157e-05C11.2339 -0.0248173 13.3911 0.814355 15.021 2.34231L12.4515 4.91181C11.5225 4.02672 10.283 3.54191 9 3.56181C6.65213 3.56181 4.6575 5.14581 3.9465 7.27881C3.57018 8.39661 3.57018 9.60688 3.9465 10.7247H3.94987C4.66425 12.8543 6.6555 14.4383 9.00338 14.4383C10.2161 14.4383 11.2579 14.1278 12.0656 13.5788H12.0623C12.5314 13.2682 12.9326 12.8657 13.2418 12.3956C13.551 11.9256 13.7617 11.3977 13.8611 10.8439H9V7.37894L17.4881 7.37781Z" fill="black"/>
</svg>
