<svg width="1181" height="1056" viewBox="0 0 1181 1056" fill="none" xmlns="http://www.w3.org/2000/svg">
<path d="M1120.02 530.821C1120.02 530.821 1120.02 516.029 1099.31 495.528C1078.6 475.026 1065.47 463.134 1065.47 463.134C1065.47 463.134 1055.17 496.977 1074.34 517.597C1088.42 532.079 1103.67 545.359 1119.96 557.299L1120.02 530.821Z" fill="#F06281"/>
<path d="M1090.14 622.708C1090.14 622.708 1090.14 607.917 1069.43 587.415C1048.72 566.913 1035.65 555.021 1035.65 555.021C1035.65 555.021 1025.32 588.865 1044.52 609.484C1058.59 623.967 1073.85 637.247 1090.14 649.186V622.708Z" fill="#F06281"/>
<path d="M1118.72 555.879C1118.72 555.879 1120.29 541.264 1142.95 522.952C1165.61 504.64 1180.02 494.345 1180.02 494.345C1180.02 494.345 1186.67 529.076 1165.49 547.595C1149.97 560.513 1133.39 572.111 1115.94 582.267L1118.72 555.879Z" fill="#F06281"/>
<path d="M1082.63 664.392C1082.63 664.392 1085.58 650.014 1110.17 634.187C1134.75 618.36 1150.02 609.632 1150.02 609.632C1150.02 609.632 1152.98 644.896 1129.99 661.019C1113.19 672.238 1095.49 682.035 1077.06 690.307L1082.63 664.392Z" fill="#F06281"/>
<path d="M1089.4 782.727C1089.4 782.727 1089.4 767.935 1110.11 747.404C1130.82 726.873 1143.92 715.039 1143.92 715.039C1143.92 715.039 1154.25 748.883 1135.05 769.474C1120.98 783.97 1105.72 797.261 1089.43 809.204L1089.4 782.727Z" fill="#F06281"/>
<path d="M1089.07 811.601C1089.07 811.601 1091.15 797.046 1073.69 773.734C1056.24 750.422 1044.79 736.872 1044.79 736.872C1044.79 736.872 1029.79 768.911 1045.79 792.016C1057.66 808.357 1070.87 823.675 1085.29 837.812L1089.07 811.601Z" fill="#F06281"/>
<path d="M1068.75 897.186C1068.75 897.186 1068.75 882.395 1089.46 861.893C1110.17 841.392 1123.3 829.499 1123.3 829.499C1123.3 829.499 1133.6 863.343 1114.43 883.963C1100.35 898.449 1085.09 911.739 1068.81 923.694L1068.75 897.186Z" fill="#F06281"/>
<path d="M1082.51 974.785C1082.51 974.785 1078.78 960.555 1093.48 935.409C1108.19 910.263 1118.04 895.53 1118.04 895.53C1118.04 895.53 1136.56 925.646 1123.27 950.437C1113.34 968.013 1101.95 984.727 1089.22 1000.4L1082.51 974.785Z" fill="#F06281"/>
<path d="M1121.88 527.064C1120.85 542.381 1118.97 557.63 1116.26 572.742C1108.1 614.81 1087.74 641.967 1079.61 679.953C1071.47 717.939 1094.84 766.9 1088.48 815.713C1082.12 864.526 1063.25 891.654 1068.66 924.226C1074.08 956.798 1102.59 1045.02 1102.59 1045.02" stroke="#263238" stroke-linecap="round" stroke-linejoin="round"/>
<path d="M1118.54 565.671L1140.73 548.631" stroke="#263238" stroke-linecap="round" stroke-linejoin="round"/>
<path d="M1119.58 546.057L1110.26 529.52" stroke="#263238" stroke-linecap="round" stroke-linejoin="round"/>
<path d="M1080.85 678.208C1080.85 678.208 1099.43 664.274 1118.54 650.34" stroke="#263238" stroke-linecap="round" stroke-linejoin="round"/>
<path d="M1090.14 649.186C1090.14 649.186 1074.64 618.833 1057.09 598.716" stroke="#263238" stroke-linecap="round" stroke-linejoin="round"/>
<path d="M1090.14 803.672C1100.74 784.086 1114.13 766.147 1129.9 750.422" stroke="#263238" stroke-linecap="round" stroke-linejoin="round"/>
<path d="M1086.53 824.322C1080.89 811.042 1074.15 798.256 1066.38 786.1C1055.56 770.095 1053.99 768.024 1053.99 768.024" stroke="#263238" stroke-linecap="round" stroke-linejoin="round"/>
<path d="M1068.75 924.226C1073.47 912.566 1079.07 901.281 1085.5 890.471C1091.93 880.423 1099.18 870.924 1107.18 862.071" stroke="#263238" stroke-linecap="round" stroke-linejoin="round"/>
<path d="M1089.22 1000.4C1088.14 989.255 1090.06 978.02 1094.78 967.862C1102.54 952.893 1111.29 933.279 1114.9 925.528" stroke="#263238" stroke-linecap="round" stroke-linejoin="round"/>
<path d="M951.925 727.405C951.925 727.405 950.327 718.175 961.007 702.999C971.686 687.822 978.757 679.036 978.757 679.036C978.757 679.036 988.875 699.153 979.112 714.122C971.861 724.74 963.737 734.735 954.824 744.002L951.925 727.405Z" fill="#F06281"/>
<path d="M980.651 781.78C980.651 781.78 979.054 772.55 989.733 757.374C1000.41 742.197 1007.48 733.411 1007.48 733.411C1007.48 733.411 1017.6 753.528 1007.84 768.527C1000.58 779.132 992.459 789.116 983.55 798.377L980.651 781.78Z" fill="#F06281"/>
<path d="M955.445 742.967C955.445 742.967 952.901 734.091 936.689 724.95C920.477 715.809 910.36 711.016 910.36 711.016C910.36 711.016 909.945 733.529 925.151 742.819C936.285 749.228 947.931 754.7 959.972 759.178L955.445 742.967Z" fill="#F06281"/>
<path d="M989.881 807.104C989.881 807.104 986.39 798.406 969.35 791.129C952.309 783.851 941.659 780.064 941.659 780.064C941.659 780.064 943.612 802.489 959.824 810.122C971.571 815.326 983.733 819.542 996.182 822.724L989.881 807.104Z" fill="#F06281"/>
<path d="M998.46 882.04C998.46 882.04 996.892 872.81 981.715 862.13C966.539 851.45 956.983 845.504 956.983 845.504C956.983 845.504 954.202 867.839 968.432 878.667C978.827 886.237 989.842 892.917 1001.36 898.636L998.46 882.04Z" fill="#F06281"/>
<path d="M1001.83 900.115C1001.83 900.115 998.875 891.24 1007.37 874.673C1015.86 858.106 1021.48 848.433 1021.48 848.433C1021.48 848.433 1034.35 866.893 1026.83 883.134C1021.17 894.665 1014.55 905.699 1007.04 916.12L1001.83 900.115Z" fill="#F06281"/>
<path d="M1027.69 974.518C1027.69 974.518 1028.75 965.229 1043.28 953.81C1057.81 942.391 1066.95 935.793 1066.95 935.793C1066.95 935.793 1071 957.952 1057.42 969.578C1047.48 977.716 1036.87 985.009 1025.71 991.381L1027.69 974.518Z" fill="#F06281"/>
<path d="M1023.81 951.561C1023.81 951.561 1022.22 942.331 1007.07 931.652C991.922 920.972 982.396 915.026 982.396 915.026C982.396 915.026 979.615 937.361 993.845 948.218C1004.25 955.776 1015.26 962.455 1026.77 968.188L1023.81 951.561Z" fill="#F06281"/>
<path d="M1023.81 1001.74C1023.81 1001.74 1024.58 992.387 1012.63 978.216C1000.68 964.046 992.928 955.881 992.928 955.881C992.928 955.881 984.555 976.767 995.59 990.878C1003.68 1000.82 1012.58 1010.06 1022.22 1018.51L1023.81 1001.74Z" fill="#F06281"/>
<path d="M950.357 725.216C952.672 734.713 955.507 744.075 958.848 753.262C968.522 778.763 984.231 793.584 993.461 816.512C1002.69 839.439 993.461 872.721 1002.57 902.63C1011.68 932.539 1026.77 947.509 1026.77 968.513C1026.77 989.517 1018.61 1047.95 1018.61 1047.95" stroke="#263238" stroke-linecap="round" stroke-linejoin="round"/>
<path d="M956.658 749.061L940.89 740.807" stroke="#263238" stroke-linecap="round" stroke-linejoin="round"/>
<path d="M953.877 736.872L957.9 725.512" stroke="#263238" stroke-linecap="round" stroke-linejoin="round"/>
<path d="M992.484 815.565C992.484 815.565 979.319 808.849 965.858 802.163" stroke="#263238" stroke-linecap="round" stroke-linejoin="round"/>
<path d="M983.521 798.377C987.401 786.187 992.506 774.422 998.756 763.261" stroke="#263238" stroke-linecap="round" stroke-linejoin="round"/>
<path d="M1000.29 895.234C991.516 884.126 981.173 874.35 969.587 866.212" stroke="#263238" stroke-linecap="round" stroke-linejoin="round"/>
<path d="M1004.79 907.778C1006.9 898.851 1009.74 890.114 1013.28 881.655C1018.34 870.443 1019.2 868.964 1019.2 868.964" stroke="#263238" stroke-linecap="round" stroke-linejoin="round"/>
<path d="M1026.06 984.459C1031.19 978.102 1036.87 972.211 1043.04 966.856C1046.97 963.967 1050.65 960.761 1054.05 957.271" stroke="#263238" stroke-linecap="round" stroke-linejoin="round"/>
<path d="M1026.77 968.513C1022.55 961.695 1017.81 955.208 1012.6 949.106C1007.47 943.509 1001.89 938.344 995.916 933.663" stroke="#263238" stroke-linecap="round" stroke-linejoin="round"/>
<path d="M1022.22 1018.51C1021.69 1011.4 1019.27 1004.55 1015.21 998.688C1008.73 990.139 1001.09 978.779 997.987 974.311" stroke="#263238" stroke-linecap="round" stroke-linejoin="round"/>
<path d="M111.657 598.539L98.6992 561.529L111.657 577.238L101.48 521.71L117.219 561.529L122.78 483.754L132.04 557.802L142.217 543.01V561.529L154.258 536.531L147.779 580.019L158.873 572.623L141.3 596.675L111.657 598.539Z" fill="#F06281"/>
<path d="M152.395 589.279H104.262L112.93 686.461H143.726L152.395 589.279Z" fill="#263238" stroke="#263238" stroke-linecap="round" stroke-linejoin="round"/>
<path d="M242.684 685.367H78.7012V1032.68H242.684V685.367Z" fill="white" stroke="#263238" stroke-linecap="round" stroke-linejoin="round"/>
<path d="M251.648 685.367H160.678V1032.68H251.648V685.367Z" fill="white" stroke="#263238" stroke-linecap="round" stroke-linejoin="round"/>
<path d="M241.412 685.367H160.678V1032.68H241.412V685.367Z" fill="#263238" stroke="#263238" stroke-linecap="round" stroke-linejoin="round"/>
<path d="M232.33 951.916H160.678V1023.04H232.33V951.916Z" fill="#F06281" stroke="#263238" stroke-linecap="round" stroke-linejoin="round"/>
<path d="M232.33 955.762H160.678V964.874H232.33V955.762Z" fill="white" stroke="#263238" stroke-linecap="round" stroke-linejoin="round"/>
<path d="M232.33 1008.13H160.678V1017.24H232.33V1008.13Z" fill="white" stroke="#263238" stroke-linecap="round" stroke-linejoin="round"/>
<path d="M174.257 953.396V1043.33" stroke="#263238" stroke-linecap="round" stroke-linejoin="round"/>
<path d="M199.255 953.396V1043.33" stroke="#263238" stroke-linecap="round" stroke-linejoin="round"/>
<path d="M221.206 953.396V1043.33" stroke="#263238" stroke-linecap="round" stroke-linejoin="round"/>
<path d="M232.33 698.265H160.678V802.844H232.33V698.265Z" fill="#F06281" stroke="#263238" stroke-linecap="round" stroke-linejoin="round"/>
<path d="M232.33 702.644H160.678V712.998H232.33V702.644Z" fill="white" stroke="#263238" stroke-linecap="round" stroke-linejoin="round"/>
<path d="M232.33 769.681H160.678V780.035H232.33V769.681Z" fill="white" stroke="#263238" stroke-linecap="round" stroke-linejoin="round"/>
<path d="M174.257 699.922V802.134" stroke="#263238" stroke-linecap="round" stroke-linejoin="round"/>
<path d="M199.255 699.922V802.134" stroke="#263238" stroke-linecap="round" stroke-linejoin="round"/>
<path d="M221.206 699.922V802.134" stroke="#263238" stroke-linecap="round" stroke-linejoin="round"/>
<path d="M232.33 824.292H160.678V928.871H232.33V824.292Z" fill="#F06281" stroke="#263238" stroke-linecap="round" stroke-linejoin="round"/>
<path d="M232.33 828.671H160.678V839.025H232.33V828.671Z" fill="white" stroke="#263238" stroke-linecap="round" stroke-linejoin="round"/>
<path d="M232.33 895.707H160.678V906.062H232.33V895.707Z" fill="white" stroke="#263238" stroke-linecap="round" stroke-linejoin="round"/>
<path d="M174.257 825.978V928.161" stroke="#263238" stroke-linecap="round" stroke-linejoin="round"/>
<path d="M199.255 825.978V928.161" stroke="#263238" stroke-linecap="round" stroke-linejoin="round"/>
<path d="M221.206 825.978V928.161" stroke="#263238" stroke-linecap="round" stroke-linejoin="round"/>
<path d="M242.654 801.394H160.678V813.287H242.654V801.394Z" fill="white" stroke="#263238" stroke-linecap="round" stroke-linejoin="round"/>
<path d="M242.654 928.22H160.678V940.113H242.654V928.22Z" fill="white" stroke="#263238" stroke-linecap="round" stroke-linejoin="round"/>
<path d="M242.654 685.367V1032.65" stroke="#263238" stroke-linecap="round" stroke-linejoin="round"/>
<path d="M149.11 685.367V1032.65H160.678V698.265H241.234V685.219L149.11 685.367Z" fill="white" stroke="#263238" stroke-linecap="round" stroke-linejoin="round"/>
<path d="M160.678 698.265V685.367" stroke="#263238" stroke-linecap="round" stroke-linejoin="round"/>
<path d="M242.033 525.822C233.424 509.225 229.814 497.332 229.814 494.581C229.814 489.138 241.648 485.884 241.648 485.884C260.108 476.121 346.937 490.232 386.017 496.741C407.893 500.555 430.024 502.73 452.225 503.249C452.225 503.249 457.639 498.93 464.059 493.487C470.478 488.043 500.95 452.247 512.901 449.111C524.853 445.975 535.681 453.46 535.681 453.46C535.681 453.46 555.236 465.293 551.952 467.571C548.668 469.849 500.95 510.971 488.998 518.574C477.046 526.177 452.107 522.922 430.392 527.271C411.695 530.999 335.961 535.614 318.595 537.034C305.554 540.127 291.866 538.987 279.515 533.78" fill="white"/>
<mask id="mask0_11_619" style="mask-type:luminance" maskUnits="userSpaceOnUse" x="229" y="448" width="324" height="91">
<path d="M242.034 525.822C233.425 509.225 229.815 497.332 229.815 494.581C229.815 489.138 241.649 485.884 241.649 485.884C260.109 476.121 346.938 490.232 386.018 496.741C407.894 500.555 430.025 502.73 452.226 503.249C452.226 503.249 457.64 498.93 464.06 493.487C470.479 488.043 500.951 452.247 512.902 449.111C524.854 445.975 535.682 453.46 535.682 453.46C535.682 453.46 555.237 465.293 551.953 467.571C548.669 469.849 500.951 510.971 488.999 518.574C477.047 526.177 452.108 522.922 430.393 527.271C411.696 530.999 335.962 535.614 318.596 537.034C305.555 540.127 291.867 538.987 279.516 533.78" fill="white"/>
</mask>
<g mask="url(#mask0_11_619)">
<path d="M535.888 453.341C535.888 453.341 525.031 445.738 513.108 448.993C501.186 452.247 470.774 488.073 464.266 493.368C457.757 498.664 452.432 503.131 452.432 503.131C430.231 502.612 408.101 500.436 386.224 496.622C347.144 490.114 260.315 475.914 241.855 485.765C241.855 485.765 230.021 489.019 230.021 494.463C230.433 497.506 231.218 500.487 232.359 503.338L233.986 503.93C233.986 503.93 255.671 501.652 302.472 502.776C349.274 503.9 457.521 510.32 464.473 512.834C467.431 513.959 488.406 509.225 511.659 501.001C529.409 486.534 550.266 468.459 552.366 467.187C555.443 465.264 535.888 453.341 535.888 453.341Z" fill="#F06281"/>
<path opacity="0.5" d="M535.888 453.341C535.888 453.341 525.031 445.738 513.108 448.993C501.186 452.247 470.774 488.073 464.266 493.368C457.757 498.664 452.432 503.131 452.432 503.131C430.231 502.612 408.101 500.436 386.224 496.622C347.144 490.114 260.315 475.914 241.855 485.765C241.855 485.765 230.021 489.019 230.021 494.463C230.433 497.506 231.218 500.487 232.359 503.338L233.986 503.93C233.986 503.93 255.671 501.652 302.472 502.776C349.274 503.9 457.521 510.32 464.473 512.834C467.431 513.959 488.406 509.225 511.659 501.001C529.409 486.534 550.266 468.459 552.366 467.187C555.443 465.264 535.888 453.341 535.888 453.341Z" fill="white"/>
</g>
<path d="M242.033 525.822C233.424 509.225 229.814 497.332 229.814 494.581C229.814 489.138 241.648 485.884 241.648 485.884C260.108 476.121 346.937 490.232 386.017 496.741C407.893 500.555 430.024 502.73 452.225 503.249C452.225 503.249 457.639 498.93 464.059 493.487C470.478 488.043 500.95 452.247 512.901 449.111C524.853 445.975 535.681 453.46 535.681 453.46C535.681 453.46 555.236 465.293 551.952 467.571C548.668 469.849 500.95 510.971 488.998 518.574C477.046 526.177 452.107 522.922 430.392 527.271C411.695 530.999 335.961 535.614 318.595 537.034C305.554 540.127 291.866 538.987 279.515 533.78" stroke="#263238" stroke-linecap="round" stroke-linejoin="round"/>
<path d="M670.731 622.324C672.695 618.597 675.64 615.477 679.248 613.303C682.857 611.128 686.991 609.982 691.203 609.987H888.527C888.527 609.987 902.786 609.987 898.526 637.086C894.266 664.185 835.75 829.647 821.609 879.673C807.468 929.699 804.48 1035.14 804.48 1035.14H567.81C567.81 1035.14 586.566 782.993 670.731 622.324Z" fill="white"/>
<mask id="mask1_11_619" style="mask-type:luminance" maskUnits="userSpaceOnUse" x="567" y="609" width="333" height="427">
<path d="M670.731 622.324C672.695 618.597 675.64 615.477 679.248 613.303C682.857 611.128 686.991 609.982 691.203 609.987H888.527C888.527 609.987 902.786 609.987 898.526 637.086C894.266 664.185 835.75 829.647 821.609 879.673C807.468 929.699 804.48 1035.14 804.48 1035.14H567.81C567.81 1035.14 586.566 782.993 670.731 622.324Z" fill="white"/>
</mask>
<g mask="url(#mask1_11_619)">
<path opacity="0.16" d="M759.601 609.987H691.204C686.991 609.982 682.857 611.128 679.248 613.303C675.64 615.477 672.695 618.597 670.732 622.324C586.566 782.993 567.603 1035.05 567.603 1035.05H673.749L699.931 935.616L809.095 958.129C809.864 949.786 810.751 941.296 811.787 932.924L809.391 906.298C809.391 906.298 787.025 882.779 779.984 876.892C772.943 871.005 777.618 860.384 776.434 814.5C775.251 768.616 734.07 735.63 718.746 707.377C703.422 679.125 727 661.463 748.182 633.211C755.726 623.004 758.802 615.49 759.601 609.987Z" fill="black"/>
</g>
<path d="M670.731 622.324C672.695 618.597 675.64 615.477 679.248 613.303C682.857 611.128 686.991 609.982 691.203 609.987H888.527C888.527 609.987 902.786 609.987 898.526 637.086C894.266 664.185 835.75 829.647 821.609 879.673C807.468 929.699 804.48 1035.14 804.48 1035.14H567.81C567.81 1035.14 586.566 782.993 670.731 622.324Z" stroke="#263238" stroke-linecap="round" stroke-linejoin="round"/>
<path d="M854.299 657.055C834.359 703.59 792.173 887.808 785.31 1035.05H804.362C804.362 1035.05 807.32 929.492 821.49 879.584C835.661 829.676 894.237 664.185 898.408 636.997C902.58 609.81 888.409 609.899 888.409 609.899C888.409 609.899 870.304 619.75 854.299 657.055Z" fill="#263238" stroke="#263238" stroke-linecap="round" stroke-linejoin="round"/>
<path d="M507.666 564.044C507.666 564.044 476.189 545.584 464.266 513.041C452.344 480.499 557.603 428.373 603.31 425.118C649.017 421.864 661.915 433.787 689.103 480.47C716.29 527.153 734.692 591.172 720.58 622.649C706.469 654.126 682.595 661.729 699.872 687.733C717.148 713.738 766.08 787.579 762.826 822.31C759.572 857.041 725.935 887.394 677.033 890.708C628.131 894.021 563.047 864.644 508.79 816.748C454.533 768.852 468.615 698.413 488.081 675.634C507.548 652.854 536.924 644.157 539.084 621.377C541.243 598.598 507.666 564.044 507.666 564.044Z" fill="#263238" stroke="#263238" stroke-linecap="round" stroke-linejoin="round"/>
<path d="M641.828 512.539C658.543 543.661 679.459 585.344 685.997 610.52C697.416 654.6 638.663 682.349 654.963 703.561" stroke="white" stroke-linecap="round" stroke-linejoin="round"/>
<path d="M619.048 471.772C619.048 471.772 625.556 482.866 634.55 499.196" stroke="white" stroke-linecap="round" stroke-linejoin="round"/>
<path d="M706.734 550.08C708.662 555.913 709.913 561.948 710.462 568.067" stroke="white" stroke-linecap="round" stroke-linejoin="round"/>
<path d="M630.35 455.59C630.35 455.59 681.766 493.575 702.297 539.046" stroke="white" stroke-linecap="round" stroke-linejoin="round"/>
<path d="M558.993 484.079C522.28 494.374 469.473 511.089 473.762 520.733" stroke="white" stroke-linecap="round" stroke-linejoin="round"/>
<path d="M592.926 475.026C592.926 475.026 585.086 476.979 573.4 480.115" stroke="white" stroke-linecap="round" stroke-linejoin="round"/>
<path d="M547.515 455.856C568.544 449.228 590.57 446.325 612.599 447.277" stroke="white" stroke-linecap="round" stroke-linejoin="round"/>
<path d="M532.546 461.98C535.871 460.247 539.311 458.745 542.841 457.483" stroke="white" stroke-linecap="round" stroke-linejoin="round"/>
<path d="M242.033 525.822C237.05 516.697 233.082 507.055 230.199 497.066C233.068 507.059 237.037 516.704 242.033 525.822ZM229.874 495.38C229.874 495.557 229.874 495.764 229.874 496.031C229.933 495.764 229.904 495.557 229.874 495.38ZM242.033 525.792C253.097 546.749 266.862 566.163 282.977 583.539C322.057 625.874 434.949 736.606 445.687 744.209C456.426 751.812 453.29 773.497 445.687 795.211C438.084 816.926 409.861 848.462 410.956 883.134C412.051 917.806 422.79 971.057 421.813 981.914C420.837 992.772 393.679 1029.69 393.679 1029.69H673.719C673.719 1029.69 638.81 985.316 638.81 970.14C638.81 954.964 686.736 760.509 688.895 746.398C691.055 732.287 682.387 722.524 665.021 721.429C647.656 720.335 581.447 706.223 578.193 695.366C574.939 684.509 595.559 643.269 595.559 643.269L530.474 646.523C530.474 646.523 527.22 674.746 522.871 680.19C518.523 685.633 512.014 674.746 496.808 667.173C481.602 659.599 452.432 653.061 441.457 644.364C430.481 635.666 326.406 537.862 326.406 537.862" fill="white"/>
<mask id="mask2_11_619" style="mask-type:luminance" maskUnits="userSpaceOnUse" x="229" y="495" width="461" height="535">
<path d="M242.033 525.822C237.05 516.697 233.082 507.055 230.199 497.066C233.068 507.059 237.037 516.704 242.033 525.822ZM229.874 495.38C229.874 495.557 229.874 495.764 229.874 496.031C229.933 495.764 229.904 495.557 229.874 495.38ZM242.033 525.792C253.097 546.749 266.862 566.163 282.977 583.539C322.057 625.874 434.949 736.606 445.687 744.209C456.426 751.812 453.29 773.497 445.687 795.211C438.084 816.926 409.861 848.462 410.956 883.134C412.051 917.806 422.79 971.057 421.813 981.914C420.837 992.772 393.679 1029.69 393.679 1029.69H673.719C673.719 1029.69 638.81 985.316 638.81 970.14C638.81 954.964 686.736 760.509 688.895 746.398C691.055 732.287 682.387 722.524 665.021 721.429C647.656 720.335 581.447 706.223 578.193 695.366C574.939 684.509 595.559 643.269 595.559 643.269L530.474 646.523C530.474 646.523 527.22 674.746 522.871 680.19C518.523 685.633 512.014 674.746 496.808 667.173C481.602 659.599 452.432 653.061 441.457 644.364C430.481 635.666 326.406 537.862 326.406 537.862" fill="white"/>
</mask>
<g mask="url(#mask2_11_619)">
<path d="M458.083 652.736C463.497 662.203 468.911 670.752 468.911 670.752C468.911 670.752 487.164 681.018 491.72 681.018C496.276 681.018 523.67 695.81 523.67 695.81C523.67 695.81 546.509 690.1 538.462 670.693C535.924 665.725 532.719 661.127 528.936 657.026C527.575 665.634 525.386 676.906 522.812 680.13C518.463 685.544 511.955 674.687 496.749 667.114C486.898 662.203 470.952 657.706 458.083 652.736Z" fill="#F06281"/>
<path d="M402.347 608.804C368.829 577.771 326.406 537.981 326.406 537.981L301.733 534.431L298.774 536.087C298.774 536.087 368.415 597.71 383.236 604.574C389.232 607.33 395.748 608.772 402.347 608.804Z" fill="#F06281"/>
<path d="M437.463 640.932L434.801 638.565C436.162 640.814 436.931 642.234 436.931 642.234L437.463 640.932Z" fill="#F06281"/>
<g opacity="0.5">
<path d="M458.083 652.736C463.497 662.203 468.911 670.752 468.911 670.752C468.911 670.752 487.164 681.018 491.72 681.018C496.276 681.018 523.67 695.81 523.67 695.81C523.67 695.81 546.509 690.1 538.462 670.693C535.924 665.725 532.719 661.127 528.936 657.026C527.575 665.634 525.386 676.906 522.812 680.13C518.463 685.544 511.955 674.687 496.749 667.114C486.898 662.203 470.952 657.706 458.083 652.736Z" fill="white"/>
<path d="M402.347 608.804C368.829 577.771 326.406 537.981 326.406 537.981L301.733 534.43L298.774 536.087C298.774 536.087 368.415 597.71 383.236 604.574C389.232 607.33 395.748 608.772 402.347 608.804Z" fill="white"/>
<path d="M437.463 640.932L434.801 638.565C436.162 640.814 436.931 642.234 436.931 642.234L437.463 640.932Z" fill="white"/>
</g>
</g>
<path d="M229.815 494.581C229.801 494.788 229.801 494.996 229.815 495.202M230.199 497.066C233.082 507.055 237.05 516.697 242.033 525.822C237.037 516.704 233.068 507.059 230.199 497.066ZM230.199 497.066C230.118 496.785 230.058 496.498 230.022 496.208M242.033 525.792C253.097 546.749 266.862 566.163 282.977 583.539C322.057 625.874 434.949 736.606 445.687 744.209C456.426 751.812 453.29 773.497 445.687 795.211C438.084 816.926 409.861 848.462 410.956 883.134C412.051 917.806 422.79 971.057 421.813 981.914C420.837 992.772 393.679 1029.69 393.679 1029.69H673.719C673.719 1029.69 638.81 985.316 638.81 970.14C638.81 954.964 686.736 760.509 688.895 746.398C691.055 732.287 682.387 722.524 665.021 721.429C647.656 720.335 581.447 706.223 578.193 695.366C574.939 684.509 595.559 643.269 595.559 643.269L530.474 646.523C530.474 646.523 527.22 674.746 522.871 680.19C518.523 685.633 512.014 674.746 496.808 667.173C481.602 659.599 452.432 653.061 441.457 644.364C430.481 635.666 326.406 537.862 326.406 537.862M229.874 495.38C229.874 495.557 229.874 495.764 229.874 496.031C229.933 495.764 229.904 495.557 229.874 495.38Z" stroke="#263238" stroke-linecap="round" stroke-linejoin="round"/>
<path d="M326.406 537.981C326.406 537.981 291.734 538.631 272.386 522.686" stroke="#263238" stroke-linecap="round" stroke-linejoin="round"/>
<path d="M578.223 695.366C574.969 684.538 595.589 643.269 595.589 643.269L530.504 646.523C530.504 646.523 527.25 674.746 522.901 680.19C518.552 685.633 512.044 674.746 496.838 667.173C495.684 666.581 494.412 666.019 493.11 665.457L489.176 727.317C489.176 727.317 494.885 787.224 563.342 775.834C591.062 771.219 620.646 746.487 646.177 718.678C619.906 713.856 580.708 703.679 578.223 695.366Z" fill="white"/>
<mask id="mask3_11_619" style="mask-type:luminance" maskUnits="userSpaceOnUse" x="489" y="643" width="158" height="135">
<path d="M578.223 695.366C574.969 684.538 595.589 643.269 595.589 643.269L530.504 646.523C530.504 646.523 527.25 674.746 522.901 680.19C518.552 685.633 512.044 674.746 496.838 667.173C495.684 666.581 494.412 666.019 493.11 665.457L489.176 727.317C489.176 727.317 494.885 787.224 563.342 775.834C591.062 771.219 620.646 746.487 646.177 718.678C619.906 713.856 580.708 703.679 578.223 695.366Z" fill="white"/>
</mask>
<g mask="url(#mask3_11_619)">
<path d="M576.388 651.464C576.388 651.464 572.453 673.533 569.288 697.94C566.122 722.346 563.785 740.511 563.785 740.511L578.222 695.366L594.493 647.529C594.493 647.529 578.755 647.529 576.388 651.464Z" fill="#F06281"/>
<path opacity="0.5" d="M576.388 651.464C576.388 651.464 572.453 673.533 569.288 697.94C566.122 722.346 563.785 740.511 563.785 740.511L578.222 695.366L594.493 647.529C594.493 647.529 578.755 647.529 576.388 651.464Z" fill="white"/>
</g>
<path d="M578.223 695.366C574.969 684.538 595.589 643.269 595.589 643.269L530.504 646.523C530.504 646.523 527.25 674.746 522.901 680.19C518.552 685.633 512.044 674.746 496.838 667.173C495.684 666.581 494.412 666.019 493.11 665.457L489.176 727.317C489.176 727.317 494.885 787.224 563.342 775.834C591.062 771.219 620.646 746.487 646.177 718.678C619.906 713.856 580.708 703.679 578.223 695.366Z" stroke="#263238" stroke-linecap="round" stroke-linejoin="round"/>
<path d="M522.871 680.19C518.523 685.604 512.014 674.746 496.808 667.173C487.223 662.351 471.958 657.972 459.326 653.239C455.746 644.748 451.013 633.684 447.965 626.998C442.552 615.165 433.854 622.649 433.854 622.649C429.316 617.488 425.649 611.623 422.997 605.284C417.583 593.45 408.885 594.426 396.963 592.267C385.041 590.107 360.042 567.298 360.042 567.298C360.042 567.298 348.357 558.423 343.535 554.015C337.914 565.079 324.453 584.545 295.343 596.704C341.76 645.192 435.925 737.316 445.806 744.239C456.663 751.812 453.409 773.526 445.806 795.241C438.203 816.955 409.98 848.492 411.074 883.164C412.169 917.836 422.908 971.087 421.932 981.944C420.955 991.618 399.3 1021.94 394.596 1028.45L405.631 1029.69H463.083C462.757 1000.58 462.787 881.773 482.697 834.439C505.506 780.035 522.871 680.19 522.871 680.19Z" fill="#F06281"/>
<mask id="mask4_11_619" style="mask-type:luminance" maskUnits="userSpaceOnUse" x="295" y="554" width="228" height="476">
<path d="M522.872 680.19C518.524 685.603 512.015 674.746 496.809 667.173C487.224 662.351 471.959 657.972 459.327 653.239C455.747 644.748 451.014 633.684 447.966 626.998C442.553 615.164 433.855 622.649 433.855 622.649C429.317 617.488 425.65 611.623 422.998 605.284C417.584 593.45 408.886 594.426 396.964 592.267C385.042 590.107 360.043 567.298 360.043 567.298C360.043 567.298 348.358 558.423 343.536 554.015C337.915 565.079 324.454 584.545 295.344 596.704C341.761 645.192 435.926 737.316 445.807 744.238C456.664 751.812 453.41 773.526 445.807 795.241C438.204 816.955 409.981 848.492 411.075 883.164C412.17 917.836 422.909 971.087 421.933 981.944C420.956 991.618 399.301 1021.94 394.597 1028.45L405.632 1029.69H463.084C462.758 1000.58 462.788 881.773 482.698 834.439C505.507 780.035 522.872 680.19 522.872 680.19Z" fill="white"/>
</mask>
<g mask="url(#mask4_11_619)">
<path opacity="0.16" d="M496.809 667.173C487.224 662.351 471.959 657.972 459.327 653.239C455.747 644.748 451.014 633.684 447.967 626.998C442.553 615.165 433.855 622.649 433.855 622.649C429.318 617.488 425.651 611.623 422.998 605.284C417.584 593.45 408.887 594.426 396.964 592.267C385.042 590.107 360.044 567.298 360.044 567.298C360.044 567.298 348.358 558.423 343.536 554.015C341.13 558.713 338.266 563.162 334.986 567.298C354.393 583.717 375.812 601.112 383.297 604.574C398.088 611.407 401.55 605.698 412.88 612.561C424.211 619.425 436.843 642.145 436.843 642.145C436.843 642.145 443.707 623.862 449.416 636.435C455.126 649.008 468.823 670.664 468.823 670.664C468.823 670.664 487.076 680.929 491.632 680.929C495.212 680.929 512.755 690.041 520.21 693.976C521.867 685.308 522.784 680.101 522.784 680.101C518.524 685.604 512.015 674.746 496.809 667.173Z" fill="black"/>
</g>
<path d="M522.871 680.19C518.523 685.604 512.014 674.746 496.808 667.173C487.223 662.351 471.958 657.972 459.326 653.239C455.746 644.748 451.013 633.684 447.965 626.998C442.552 615.165 433.854 622.649 433.854 622.649C429.316 617.488 425.649 611.623 422.997 605.284C417.583 593.45 408.885 594.426 396.963 592.267C385.041 590.107 360.042 567.298 360.042 567.298C360.042 567.298 348.357 558.423 343.535 554.015C337.914 565.079 324.453 584.545 295.343 596.704C341.76 645.192 435.925 737.316 445.806 744.239C456.663 751.812 453.409 773.526 445.806 795.241C438.203 816.955 409.98 848.492 411.074 883.164C412.169 917.836 422.908 971.087 421.932 981.944C420.955 991.618 399.3 1021.94 394.596 1028.45L405.631 1029.69H463.083C462.757 1000.58 462.787 881.773 482.697 834.439C505.506 780.035 522.871 680.19 522.871 680.19Z" stroke="#263238" stroke-linecap="round" stroke-linejoin="round"/>
<path d="M523.641 676.403C523.641 676.403 510.151 672.261 501.838 679.539C493.525 686.816 481.129 724.151 473.822 764.651C469.318 788.228 472.426 812.626 482.697 834.321C482.697 834.321 499.767 789.561 504.944 767.758C510.121 745.954 523.641 676.403 523.641 676.403Z" fill="#F06281"/>
<mask id="mask5_11_619" style="mask-type:luminance" maskUnits="userSpaceOnUse" x="471" y="675" width="53" height="160">
<path d="M523.64 676.403C523.64 676.403 510.15 672.261 501.837 679.539C493.524 686.816 481.128 724.151 473.821 764.651C469.317 788.228 472.425 812.626 482.696 834.321C482.696 834.321 499.766 789.561 504.943 767.757C510.12 745.954 523.64 676.403 523.64 676.403Z" fill="white"/>
</mask>
<g mask="url(#mask5_11_619)">
<path opacity="0.16" d="M497.755 683C497.755 683 507.518 680.633 511.541 681.994C514.929 683.447 518.096 685.369 520.949 687.704L523.641 676.403C519.602 674.339 515.022 673.585 510.535 674.243C503.82 675.604 497.755 683 497.755 683Z" fill="black"/>
</g>
<path d="M523.641 676.403C523.641 676.403 510.151 672.261 501.838 679.539C493.525 686.816 481.129 724.151 473.822 764.651C469.318 788.228 472.426 812.626 482.697 834.321C482.697 834.321 499.767 789.561 504.944 767.758C510.121 745.954 523.641 676.403 523.641 676.403Z" stroke="#263238" stroke-linecap="round" stroke-linejoin="round"/>
<path d="M432.789 679.953L450.154 750.51L411.074 661.493" stroke="#263238" stroke-linecap="round" stroke-linejoin="round"/>
<path d="M547.19 1029.69H673.749C673.749 1029.69 638.84 985.317 638.84 970.14C638.84 954.964 686.766 760.51 688.926 746.398C691.085 732.287 682.417 722.524 665.052 721.429C647.686 720.335 581.477 706.223 578.223 695.366C578.223 695.366 553.254 783.289 544.586 842.989C537.131 894.199 544.853 1000.46 547.19 1029.69Z" fill="#F06281"/>
<mask id="mask6_11_619" style="mask-type:luminance" maskUnits="userSpaceOnUse" x="541" y="695" width="149" height="335">
<path d="M547.189 1029.69H673.748C673.748 1029.69 638.839 985.316 638.839 970.14C638.839 954.963 686.765 760.509 688.925 746.398C691.084 732.286 682.416 722.524 665.051 721.429C647.685 720.335 581.476 706.223 578.222 695.366C578.222 695.366 553.254 783.289 544.585 842.989C537.13 894.198 544.852 1000.46 547.189 1029.69Z" fill="white"/>
</mask>
<g mask="url(#mask6_11_619)">
<path opacity="0.16" d="M665.051 721.429C650.821 720.542 603.812 710.898 585.5 701.49L592.156 716.873C604.217 723.272 617.187 727.781 630.615 730.245C652.655 734.18 673.157 733.411 686.558 753.114L687.209 754.09C688.037 750.303 688.599 747.641 688.777 746.398C691.114 732.287 682.416 722.524 665.051 721.429Z" fill="black"/>
</g>
<path d="M547.19 1029.69H673.749C673.749 1029.69 638.84 985.317 638.84 970.14C638.84 954.964 686.766 760.51 688.926 746.398C691.085 732.287 682.417 722.524 665.052 721.429C647.686 720.335 581.477 706.223 578.223 695.366C578.223 695.366 553.254 783.289 544.586 842.989C537.131 894.199 544.853 1000.46 547.19 1029.69Z" stroke="#263238" stroke-linecap="round" stroke-linejoin="round"/>
<path d="M578.223 695.366C578.223 695.366 544.734 801.868 544.586 842.989C544.586 842.989 592.157 785.389 598.369 744.919C604.582 704.448 578.223 695.366 578.223 695.366Z" fill="#F06281"/>
<mask id="mask7_11_619" style="mask-type:luminance" maskUnits="userSpaceOnUse" x="544" y="695" width="56" height="148">
<path d="M578.223 695.366C578.223 695.366 544.734 801.868 544.586 842.989C544.586 842.989 592.157 785.389 598.369 744.919C604.582 704.448 578.223 695.366 578.223 695.366Z" fill="white"/>
</mask>
<g mask="url(#mask7_11_619)">
<path opacity="0.16" d="M572.454 708.975C577.486 708.806 582.483 709.865 587.014 712.061C591.545 714.257 595.473 717.523 598.458 721.577C598.458 721.577 591.891 702.259 578.223 695.366L572.454 708.975Z" fill="black"/>
</g>
<path d="M578.223 695.366C578.223 695.366 544.734 801.868 544.586 842.989C544.586 842.989 592.157 785.389 598.369 744.919C604.582 704.448 578.223 695.366 578.223 695.366Z" stroke="#263238" stroke-linecap="round" stroke-linejoin="round"/>
<path d="M935.743 1009.66C935.743 1009.66 960.268 1010.67 976.332 1012.98C987.045 1014.43 997.829 1015.29 1008.64 1015.55C1008.64 1015.55 999.762 997.623 990.295 992.565C980.828 987.506 963.67 978.453 949.292 980.465C934.914 982.477 914.354 996.973 916.07 1001.59C917.785 1006.2 925.448 1008.27 935.743 1009.66Z" fill="white"/>
<mask id="mask8_11_619" style="mask-type:luminance" maskUnits="userSpaceOnUse" x="915" y="980" width="94" height="36">
<path d="M935.742 1009.66C935.742 1009.66 960.267 1010.67 976.331 1012.98C987.044 1014.43 997.829 1015.29 1008.64 1015.55C1008.64 1015.55 999.761 997.623 990.294 992.565C980.827 987.506 963.669 978.453 949.291 980.465C934.913 982.477 914.353 996.973 916.069 1001.59C917.784 1006.2 925.447 1008.27 935.742 1009.66Z" fill="white"/>
</mask>
<g mask="url(#mask8_11_619)">
<path d="M935.742 1009.66C935.742 1009.66 960.267 1010.67 976.331 1012.98C987.044 1014.43 997.829 1015.29 1008.64 1015.55C1008.64 1015.55 999.761 997.623 990.294 992.565C980.827 987.506 963.669 978.453 949.291 980.465C934.913 982.477 914.353 996.973 916.069 1001.59C917.784 1006.2 925.447 1008.27 935.742 1009.66Z" fill="#F06281"/>
<path opacity="0.5" d="M935.742 1009.66C935.742 1009.66 960.267 1010.67 976.331 1012.98C987.044 1014.43 997.829 1015.29 1008.64 1015.55C1008.64 1015.55 999.761 997.623 990.294 992.565C980.827 987.506 963.669 978.453 949.291 980.465C934.913 982.477 914.353 996.973 916.069 1001.59C917.784 1006.2 925.447 1008.27 935.742 1009.66Z" fill="white"/>
</g>
<path d="M935.743 1009.66C935.743 1009.66 960.268 1010.67 976.332 1012.98C987.045 1014.43 997.829 1015.29 1008.64 1015.55C1008.64 1015.55 999.762 997.623 990.295 992.565C980.828 987.506 963.67 978.453 949.292 980.465C934.914 982.477 914.354 996.973 916.07 1001.59C917.785 1006.2 925.448 1008.27 935.743 1009.66Z" stroke="#263238" stroke-linecap="round" stroke-linejoin="round"/>
<path d="M976.479 1002.33C976.479 1002.33 995.916 992.239 1000.77 992.387C1005.62 992.535 1037.87 1014.34 1036.27 1017.83C1035.18 1019.45 1033.62 1020.68 1031.79 1021.36C1029.96 1022.04 1027.97 1022.13 1026.09 1021.62C1022.51 1019.93 1000.8 1010.7 1000.8 1010.7L986.597 1014.04L976.479 1002.33Z" fill="white"/>
<mask id="mask9_11_619" style="mask-type:luminance" maskUnits="userSpaceOnUse" x="976" y="992" width="61" height="30">
<path d="M976.479 1002.33C976.479 1002.33 995.916 992.239 1000.77 992.387C1005.62 992.535 1037.87 1014.34 1036.27 1017.83C1035.18 1019.45 1033.62 1020.68 1031.79 1021.36C1029.96 1022.04 1027.97 1022.13 1026.09 1021.62C1022.51 1019.93 1000.8 1010.7 1000.8 1010.7L986.597 1014.04L976.479 1002.33Z" fill="white"/>
</mask>
<g mask="url(#mask9_11_619)">
<path d="M976.479 1002.33C976.479 1002.33 995.916 992.239 1000.77 992.387C1005.62 992.535 1037.87 1014.34 1036.27 1017.83C1034.67 1021.32 1027.04 1024.16 1026.09 1021.62C1025.14 1019.07 1000.8 1010.7 1000.8 1010.7L986.597 1014.04L976.479 1002.33Z" fill="#F06281"/>
<path opacity="0.5" d="M976.479 1002.33C976.479 1002.33 995.916 992.239 1000.77 992.387C1005.62 992.535 1037.87 1014.34 1036.27 1017.83C1034.67 1021.32 1027.04 1024.16 1026.09 1021.62C1025.14 1019.07 1000.8 1010.7 1000.8 1010.7L986.597 1014.04L976.479 1002.33Z" fill="white"/>
</g>
<path d="M976.479 1002.33C976.479 1002.33 995.916 992.239 1000.77 992.387C1005.62 992.535 1037.87 1014.34 1036.27 1017.83C1035.18 1019.45 1033.62 1020.68 1031.79 1021.36C1029.96 1022.04 1027.97 1022.13 1026.09 1021.62C1022.51 1019.93 1000.8 1010.7 1000.8 1010.7L986.597 1014.04L976.479 1002.33Z" stroke="#263238" stroke-linecap="round" stroke-linejoin="round"/>
<path d="M962.604 985.731C962.604 985.731 988.52 984.902 993.667 987.506C998.815 990.109 1022.07 1029.99 1018.58 1032.89C1015.09 1035.79 1005.44 1034.93 1005.74 1031.7C1006.03 1028.48 984.319 1007.12 984.319 1007.12L967.427 1003.42L962.604 985.731Z" fill="white"/>
<mask id="mask10_11_619" style="mask-type:luminance" maskUnits="userSpaceOnUse" x="962" y="985" width="57" height="50">
<path d="M962.604 985.731C962.604 985.731 988.52 984.902 993.667 987.506C998.815 990.109 1022.07 1029.99 1018.58 1032.89C1015.09 1035.79 1005.44 1034.93 1005.74 1031.7C1006.03 1028.48 984.319 1007.12 984.319 1007.12L967.427 1003.42L962.604 985.731Z" fill="white"/>
</mask>
<g mask="url(#mask10_11_619)">
<path d="M962.604 985.731C962.604 985.731 988.52 984.902 993.667 987.506C998.815 990.109 1022.07 1029.99 1018.58 1032.89C1015.09 1035.79 1005.44 1034.93 1005.74 1031.7C1006.03 1028.48 984.319 1007.12 984.319 1007.12L967.427 1003.42L962.604 985.731Z" fill="#F06281"/>
<path opacity="0.5" d="M962.604 985.731C962.604 985.731 988.52 984.902 993.667 987.506C998.815 990.109 1022.07 1029.99 1018.58 1032.89C1015.09 1035.79 1005.44 1034.93 1005.74 1031.7C1006.03 1028.48 984.319 1007.12 984.319 1007.12L967.427 1003.42L962.604 985.731Z" fill="white"/>
</g>
<path d="M962.604 985.731C962.604 985.731 988.52 984.902 993.667 987.506C998.815 990.109 1022.07 1029.99 1018.58 1032.89C1015.09 1035.79 1005.44 1034.93 1005.74 1031.7C1006.03 1028.48 984.319 1007.12 984.319 1007.12L967.427 1003.42L962.604 985.731Z" stroke="#263238" stroke-linecap="round" stroke-linejoin="round"/>
<path d="M947.251 980.376C947.251 980.376 973.492 979.518 978.699 982.181C983.905 984.843 1007.45 1025.17 1003.9 1028.12C1000.35 1031.08 990.65 1030.17 990.946 1026.91C991.242 1023.66 969.261 1002.03 969.261 1002.03L952.162 998.274L947.251 980.376Z" fill="white"/>
<mask id="mask11_11_619" style="mask-type:luminance" maskUnits="userSpaceOnUse" x="947" y="980" width="58" height="50">
<path d="M947.251 980.376C947.251 980.376 973.492 979.518 978.699 982.181C983.905 984.843 1007.45 1025.17 1003.9 1028.12C1000.35 1031.08 990.65 1030.17 990.946 1026.91C991.242 1023.66 969.261 1002.03 969.261 1002.03L952.162 998.274L947.251 980.376Z" fill="white"/>
</mask>
<g mask="url(#mask11_11_619)">
<path d="M947.251 980.376C947.251 980.376 973.492 979.518 978.699 982.181C983.905 984.843 1007.45 1025.17 1003.9 1028.12C1000.35 1031.08 990.65 1030.17 990.946 1026.91C991.242 1023.66 969.261 1002.03 969.261 1002.03L952.162 998.274L947.251 980.376Z" fill="#F06281"/>
<path opacity="0.5" d="M947.251 980.376C947.251 980.376 973.492 979.518 978.699 982.181C983.905 984.843 1007.45 1025.17 1003.9 1028.12C1000.35 1031.08 990.65 1030.17 990.946 1026.91C991.242 1023.66 969.261 1002.03 969.261 1002.03L952.162 998.274L947.251 980.376Z" fill="white"/>
</g>
<path d="M947.251 980.376C947.251 980.376 973.492 979.518 978.699 982.181C983.905 984.843 1007.45 1025.17 1003.9 1028.12C1000.35 1031.08 990.65 1030.17 990.946 1026.91C991.242 1023.66 969.261 1002.03 969.261 1002.03L952.162 998.274L947.251 980.376Z" stroke="#263238" stroke-linecap="round" stroke-linejoin="round"/>
<path d="M648.899 830.031C667.892 859.29 706.025 933.427 717.149 941.769C734.514 954.786 850.601 986.382 861.784 995.02C872.966 1003.66 872.197 1012.33 882.788 1015.49C893.379 1018.66 933.08 1027.74 948.227 1029.16C963.374 1030.58 956.599 1021.2 956.599 1021.2L930.773 1003.45L953.286 997.89C953.286 997.89 975.859 1025.05 980.089 1026.53C984.319 1028.01 991.775 1026.53 991.301 1023.18C990.473 1017.83 966.392 974.016 957.842 972.152C949.292 970.288 897.402 977.477 897.402 977.477C897.402 977.477 788.564 904.08 786.611 901.476C786.611 901.476 780.103 883.016 774.778 875.413C769.453 867.81 766.08 869.999 766.08 869.999C766.08 869.999 768.269 860.207 765.015 856.953L747.649 839.587L747.028 840.415C744.07 834.499 741.111 827.753 737.857 820.062C728.775 798.673 696.617 738.647 691.204 729.979C687.151 723.5 653.188 718.856 635.971 716.903" fill="#F06281"/>
<mask id="mask12_11_619" style="mask-type:luminance" maskUnits="userSpaceOnUse" x="635" y="716" width="357" height="314">
<path d="M648.898 830.031C667.891 859.29 706.024 933.427 717.148 941.769C734.513 954.786 850.6 986.382 861.783 995.02C872.965 1003.66 872.196 1012.33 882.787 1015.49C893.378 1018.66 933.079 1027.74 948.226 1029.16C963.373 1030.58 956.599 1021.2 956.599 1021.2L930.772 1003.45L953.285 997.89C953.285 997.89 975.858 1025.05 980.088 1026.53C984.318 1028.01 991.774 1026.53 991.3 1023.18C990.472 1017.83 966.391 974.016 957.841 972.152C949.291 970.288 897.401 977.477 897.401 977.477C897.401 977.477 788.563 904.08 786.61 901.476C786.61 901.476 780.102 883.016 774.777 875.413C769.452 867.81 766.079 869.999 766.079 869.999C766.079 869.999 768.268 860.207 765.014 856.953L747.648 839.587L747.027 840.415C744.069 834.499 741.11 827.753 737.856 820.062C728.774 798.673 696.616 738.647 691.203 729.979C687.15 723.5 653.187 718.856 635.97 716.903" fill="white"/>
</mask>
<g mask="url(#mask12_11_619)">
<path opacity="0.16" d="M724.515 831.895C738.715 844.498 733.982 844.498 730.816 855.562C727.651 866.627 733.183 851.628 746.584 852.426C759.986 853.225 756.051 870.532 754.454 873.697C752.856 876.863 771.02 880.797 767.855 887.868C764.69 894.938 746.584 905.204 736.348 915.469C726.112 925.735 763.122 898.902 775.724 898.133C779.57 897.867 782.736 898.37 785.398 898.311C782.605 890.395 779.017 882.783 774.689 875.59C769.245 867.987 765.991 870.177 765.991 870.177C765.991 870.177 768.18 860.384 764.926 857.13L747.561 839.764L746.939 840.593C743.981 834.676 741.023 827.931 737.768 820.239C728.686 798.85 696.529 738.825 691.115 730.157C687.062 723.678 653.1 719.033 635.882 717.081L637.45 730.778L637.834 731.074C637.834 731.074 659.105 735.008 666.205 735.807C673.305 736.606 681.973 742.878 681.175 747.641C680.376 752.404 659.904 773.645 666.205 775.242C672.507 776.84 679.607 759.474 686.707 761.841C693.807 764.208 710.226 819.293 724.515 831.895Z" fill="black"/>
</g>
<path d="M648.899 830.031C667.892 859.29 706.025 933.427 717.149 941.769C734.514 954.786 850.601 986.382 861.784 995.02C872.966 1003.66 872.197 1012.33 882.788 1015.49C893.379 1018.66 933.08 1027.74 948.227 1029.16C963.374 1030.58 956.599 1021.2 956.599 1021.2L930.773 1003.45L953.286 997.89C953.286 997.89 975.859 1025.05 980.089 1026.53C984.319 1028.01 991.775 1026.53 991.301 1023.18C990.473 1017.83 966.392 974.016 957.842 972.152C949.292 970.288 897.402 977.477 897.402 977.477C897.402 977.477 788.564 904.08 786.611 901.476C786.611 901.476 780.103 883.016 774.778 875.413C769.453 867.81 766.08 869.999 766.08 869.999C766.08 869.999 768.269 860.207 765.015 856.953L747.649 839.587L747.028 840.415C744.07 834.499 741.111 827.753 737.857 820.062C728.775 798.673 696.617 738.647 691.204 729.979C687.151 723.5 653.188 718.856 635.971 716.903" stroke="#263238" stroke-linecap="round" stroke-linejoin="round"/>
<path d="M649.194 789.886C648.396 792.549 647.715 795.211 647.183 797.933" stroke="#263238" stroke-linecap="round" stroke-linejoin="round"/>
<path d="M677.95 740.925C668.653 751.521 660.814 763.311 654.638 775.982" stroke="#263238" stroke-linecap="round" stroke-linejoin="round"/>
<path d="M721.408 908.902C729.396 897.068 742.117 882.069 756.139 877.78" stroke="#263238" stroke-linecap="round" stroke-linejoin="round"/>
<path d="M712.562 923.457C712.562 923.457 713.983 920.676 716.527 916.475" stroke="#263238" stroke-linecap="round" stroke-linejoin="round"/>
<path d="M712.562 904.76C712.562 904.76 727.088 868.431 741.614 859.083C756.139 849.734 747.826 868.431 747.826 868.431" stroke="#263238" stroke-linecap="round" stroke-linejoin="round"/>
<path d="M861.783 995.05C872.996 1003.72 872.197 1012.36 882.788 1015.52C893.379 1018.69 933.08 1027.77 948.227 1029.19C963.374 1030.61 956.599 1021.23 956.599 1021.23L930.773 1003.48L953.286 997.919C953.286 997.919 975.858 1025.08 980.089 1026.56C984.319 1028.04 992.366 1028.57 991.301 1023.21C989.23 1012.86 966.392 974.045 957.842 972.181C949.292 970.318 897.402 977.506 897.402 977.506C897.402 977.506 798.267 909.464 787.41 902.097C745.312 906.15 725.284 928.19 716.853 941.414L717.148 941.651C734.514 954.786 850.601 986.382 861.783 995.05Z" fill="white"/>
<mask id="mask13_11_619" style="mask-type:luminance" maskUnits="userSpaceOnUse" x="716" y="902" width="276" height="128">
<path d="M861.782 995.05C872.995 1003.72 872.196 1012.36 882.787 1015.52C893.378 1018.69 933.079 1027.77 948.226 1029.19C963.373 1030.61 956.598 1021.23 956.598 1021.23L930.772 1003.48L953.285 997.919C953.285 997.919 975.857 1025.08 980.088 1026.56C984.318 1028.04 992.365 1028.57 991.3 1023.21C989.229 1012.86 966.391 974.045 957.841 972.181C949.291 970.318 897.401 977.507 897.401 977.507C897.401 977.507 798.266 909.464 787.409 902.097C745.311 906.15 725.283 928.19 716.852 941.414L717.147 941.651C734.513 954.786 850.6 986.382 861.782 995.05Z" fill="white"/>
</mask>
<g mask="url(#mask13_11_619)">
<path d="M991.27 1023.33C985.886 1010.17 966.361 974.164 957.811 972.3C949.262 970.436 897.372 977.625 897.372 977.625C897.372 977.625 798.236 909.582 787.379 902.216C776.33 903.177 765.488 905.8 755.222 909.996C770.871 918.872 875.184 978.039 888.349 980.672C902.312 983.63 948.907 975.968 957.101 981.471C962.308 984.962 977.81 1009.55 988.283 1027C991.27 1026.56 992.365 1025.99 991.27 1023.33Z" fill="#F06281"/>
<path opacity="0.5" d="M991.27 1023.33C982.869 1004.49 966.361 974.164 957.811 972.3C949.262 970.436 897.372 977.625 897.372 977.625C897.372 977.625 798.236 909.582 787.379 902.216C776.33 903.177 765.488 905.8 755.222 909.996C770.871 918.872 875.184 978.039 888.349 980.672C902.312 983.63 948.907 975.968 957.101 981.471C962.308 984.962 977.81 1009.55 988.282 1027C991.27 1026.56 992.454 1025.96 991.27 1023.33Z" fill="white"/>
</g>
<path d="M861.783 995.05C872.996 1003.72 872.197 1012.36 882.788 1015.52C893.379 1018.69 933.08 1027.77 948.227 1029.19C963.374 1030.61 956.599 1021.23 956.599 1021.23L930.773 1003.48L953.286 997.919C953.286 997.919 975.858 1025.08 980.089 1026.56C984.319 1028.04 992.366 1028.57 991.301 1023.21C989.23 1012.86 966.392 974.045 957.842 972.181C949.292 970.318 897.402 977.506 897.402 977.506C897.402 977.506 798.267 909.464 787.41 902.097C745.312 906.15 725.284 928.19 716.853 941.414L717.148 941.651C734.514 954.786 850.601 986.382 861.783 995.05Z" stroke="#263238" stroke-linecap="round" stroke-linejoin="round"/>
<path d="M600.322 478.458L511.215 515.645C510.136 531.305 506.258 546.645 499.767 560.937C489.235 583.214 495.388 625.371 505.506 648.121C515.623 670.871 560.206 661.966 576.507 659.126C587.562 657.023 598.391 653.863 608.842 649.689C613.601 651.523 618.748 652.116 623.799 651.412C628.85 650.708 633.639 648.731 637.716 645.665C637.716 645.665 590.027 511.799 600.322 478.458Z" fill="white"/>
<mask id="mask14_11_619" style="mask-type:luminance" maskUnits="userSpaceOnUse" x="494" y="478" width="144" height="186">
<path d="M600.323 478.458L511.216 515.645C510.137 531.305 506.259 546.645 499.768 560.937C489.236 583.214 495.389 625.371 505.507 648.121C515.624 670.871 560.207 661.966 576.508 659.126C587.563 657.023 598.392 653.863 608.843 649.689C613.602 651.523 618.749 652.116 623.8 651.412C628.851 650.708 633.64 648.731 637.717 645.665C637.717 645.665 590.028 511.799 600.323 478.458Z" fill="white"/>
</mask>
<g mask="url(#mask14_11_619)">
<path d="M600.323 478.458L511.216 515.645C510.137 531.305 506.259 546.645 499.768 560.937C489.236 583.214 495.389 625.371 505.507 648.121C507.2 651.779 509.925 654.864 513.346 656.996V655.28C513.346 655.28 496.809 614.307 499.945 590.669C503.081 567.032 516.512 555.169 518.08 540.229C519.648 525.289 518.849 518.189 548.817 507.154C578.786 496.12 591.359 485.884 594.495 496.889C597.631 507.894 610.263 580.433 618.931 597.769C627.599 615.105 626.8 633.27 613.428 641.109C599.913 649.222 585.432 655.603 570.325 660.102L576.626 659.008C587.682 656.905 598.51 653.744 608.961 649.57C613.72 651.405 618.867 651.998 623.919 651.294C628.97 650.59 633.759 648.612 637.835 645.547C637.835 645.547 590.028 511.799 600.323 478.458Z" fill="#F06281"/>
<path opacity="0.5" d="M600.323 478.458L511.216 515.645C510.137 531.305 506.259 546.645 499.768 560.937C489.236 583.214 495.389 625.371 505.507 648.121C507.2 651.779 509.925 654.864 513.346 656.996V655.28C513.346 655.28 496.809 614.307 499.945 590.669C503.081 567.032 516.512 555.169 518.08 540.229C519.648 525.289 518.849 518.189 548.817 507.154C578.786 496.12 591.359 485.884 594.495 496.889C597.631 507.894 610.263 580.433 618.931 597.769C627.599 615.105 626.8 633.27 613.428 641.109C599.913 649.222 585.432 655.603 570.325 660.102L576.626 659.008C587.682 656.905 598.51 653.744 608.961 649.57C613.72 651.405 618.867 651.998 623.919 651.294C628.97 650.59 633.759 648.612 637.835 645.547C637.835 645.547 590.028 511.799 600.323 478.458Z" fill="white"/>
</g>
<path d="M600.322 478.458L511.215 515.645C510.136 531.305 506.258 546.645 499.767 560.937C489.235 583.214 495.388 625.371 505.506 648.121C515.623 670.871 560.206 661.966 576.507 659.126C587.563 657.023 598.391 653.863 608.842 649.689C613.601 651.523 618.748 652.116 623.799 651.412C628.85 650.708 633.639 648.731 637.716 645.665C637.716 645.665 590.027 511.799 600.322 478.458Z" stroke="#263238" stroke-linecap="round" stroke-linejoin="round"/>
<path d="M555.295 536.768C555.537 542.007 554.887 547.248 553.372 552.269C551.005 558.186 528.67 581.439 529.35 583.954C530.031 586.468 532.042 594.545 536.007 595.314" stroke="#263238" stroke-linecap="round" stroke-linejoin="round"/>
<path d="M580.057 557.565C583.163 551.352 593.369 557.417 593.221 571.41" stroke="#263238" stroke-linecap="round" stroke-linejoin="round"/>
<path d="M529.469 539.282C529.469 539.282 538.166 535.466 545.947 549.548" stroke="#263238" stroke-linecap="round" stroke-linejoin="round"/>
<path d="M567.691 578.067C577.742 578.572 587.298 582.581 594.701 589.397" stroke="#263238" stroke-width="0.5" stroke-linecap="round" stroke-linejoin="round"/>
<path d="M518.967 559.577C524.163 560.27 529.24 561.674 534.054 563.748" stroke="#263238" stroke-width="0.5" stroke-linecap="round" stroke-linejoin="round"/>
<path d="M554.32 523.632C552.023 522.418 549.475 521.753 546.877 521.692C544.279 521.63 541.702 522.173 539.35 523.277C531.392 527.094 526.511 531.295 527.043 526.413C527.576 521.532 536.924 516.148 539.735 515.438C542.545 514.728 555.118 512.775 554.32 523.632Z" fill="#263238"/>
<path d="M576.625 512.598C584.918 519.308 591.507 527.884 595.854 537.626C601.771 552.417 606.445 536.265 601.771 526.591C597.097 516.917 583.577 506.622 576.625 512.598Z" fill="#263238"/>
<path d="M639.018 670.959C639.018 677.853 635.113 683.444 630.32 683.444C625.528 683.444 621.652 677.853 621.652 670.959C621.652 664.066 625.528 646.523 630.32 646.523C635.113 646.523 639.018 664.066 639.018 670.959Z" fill="#F06281" stroke="#263238" stroke-linecap="round" stroke-linejoin="round"/>
<path d="M580.826 554.873C580.486 555.777 580.219 556.707 580.028 557.654C579.17 562.032 578.312 571.174 580.028 571.558C581.744 571.943 585.945 563.393 586.684 559.015C586.851 558.156 586.95 557.285 586.98 556.411C584.961 555.778 582.906 555.264 580.826 554.873Z" fill="#263238"/>
<path d="M530.356 538.424C530.093 539.198 529.886 539.988 529.735 540.791C528.848 545.169 528.877 554.784 530.741 555.139C532.605 555.494 535.652 546.501 536.51 542.122C536.724 541.06 536.843 539.981 536.865 538.898C534.747 538.315 532.536 538.155 530.356 538.424Z" fill="#263238"/>
<path d="M580.057 557.713L583.015 552.21C587.705 553.124 591.955 555.582 595.085 559.192" stroke="#263238" stroke-width="0.75" stroke-linecap="round" stroke-linejoin="round"/>
<path d="M530.356 538.424L533.315 534.963C533.315 534.963 534.587 534.342 541.569 537.507" stroke="#263238" stroke-width="0.75" stroke-linecap="round" stroke-linejoin="round"/>
<path d="M519.145 618.655C519.145 618.655 524.115 609.514 530.771 609.514C537.427 609.514 542.397 624.454 542.397 624.454" stroke="#263238" stroke-linecap="round" stroke-linejoin="round"/>
<path d="M304.927 1012.89C298.495 1012.57 292.176 1011.06 286.29 1008.45C285.469 1008.15 284.718 1007.68 284.084 1007.08C283.45 1006.47 282.945 1005.75 282.6 1004.94C282.255 1004.14 282.077 1003.27 282.077 1002.4C282.078 1001.52 282.256 1000.66 282.602 999.855C282.947 999.051 283.453 998.325 284.088 997.723C284.723 997.121 285.474 996.654 286.295 996.351C287.116 996.048 287.99 995.916 288.864 995.962C289.738 996.008 290.593 996.231 291.378 996.618C297.295 999.132 304.957 1000.7 306.998 999.813C310.755 995.612 316.524 970.229 309.069 957.981C307.383 955.26 305.815 954.757 304.78 954.638C300.549 954.047 294.277 958.395 292.059 960.555C291.441 961.138 290.714 961.593 289.921 961.895C289.127 962.197 288.282 962.34 287.433 962.315C286.584 962.29 285.748 962.099 284.973 961.751C284.199 961.403 283.5 960.907 282.917 960.289C282.334 959.671 281.879 958.945 281.577 958.151C281.275 957.357 281.132 956.512 281.157 955.663C281.182 954.814 281.373 953.978 281.721 953.204C282.069 952.429 282.566 951.73 283.183 951.147C284.337 950.023 295.017 940.408 306.407 941.947C309.232 942.359 311.923 943.417 314.273 945.039C316.623 946.66 318.568 948.801 319.956 951.295C330.932 969.193 323.417 1003.24 314.986 1009.99C312.056 1012.06 308.511 1013.08 304.927 1012.89Z" fill="white"/>
<mask id="mask15_11_619" style="mask-type:luminance" maskUnits="userSpaceOnUse" x="281" y="941" width="45" height="72">
<path d="M304.928 1012.89C298.496 1012.57 292.177 1011.06 286.291 1008.45C285.47 1008.15 284.719 1007.68 284.085 1007.08C283.451 1006.47 282.946 1005.75 282.601 1004.94C282.256 1004.14 282.078 1003.27 282.078 1002.4C282.078 1001.52 282.257 1000.66 282.603 999.855C282.948 999.051 283.454 998.326 284.089 997.723C284.724 997.121 285.475 996.654 286.296 996.351C287.117 996.049 287.991 995.916 288.865 995.962C289.739 996.008 290.594 996.231 291.379 996.618C297.296 999.132 304.958 1000.7 306.999 999.813C310.756 995.612 316.525 970.229 309.07 957.981C307.384 955.26 305.816 954.757 304.781 954.638C300.55 954.047 294.278 958.396 292.059 960.555C291.442 961.138 290.715 961.593 289.922 961.895C289.128 962.197 288.283 962.34 287.434 962.315C286.585 962.291 285.749 962.099 284.974 961.751C284.2 961.404 283.501 960.907 282.918 960.289C282.335 959.671 281.88 958.945 281.578 958.151C281.276 957.357 281.133 956.512 281.158 955.663C281.183 954.814 281.374 953.979 281.722 953.204C282.07 952.429 282.567 951.73 283.184 951.148C284.338 950.023 295.018 940.409 306.408 941.947C309.233 942.359 311.924 943.417 314.274 945.039C316.624 946.66 318.569 948.801 319.957 951.295C330.933 969.194 323.418 1003.24 314.987 1009.99C312.057 1012.06 308.512 1013.08 304.928 1012.89Z" fill="white"/>
</mask>
<g mask="url(#mask15_11_619)">
<path d="M313.596 956.029C312.82 954.191 311.606 952.572 310.058 951.314C308.511 950.055 306.678 949.195 304.721 948.81C297.325 947.627 290.373 955.052 289.604 955.881C288.897 956.733 288.46 957.776 288.349 958.877C288.238 959.979 288.459 961.088 288.983 962.064C290.146 961.83 291.222 961.277 292.089 960.466C294.308 958.395 300.579 954.047 304.81 954.55C305.845 954.55 307.413 955.171 309.1 957.893C316.555 970.022 310.786 995.523 307.029 999.724C304.987 1000.61 297.355 999.044 291.408 996.529C290.677 996.221 289.894 996.051 289.101 996.026C289.155 996.837 289.41 997.621 289.844 998.308C290.278 998.996 290.877 999.563 291.586 999.961C295.327 1001.96 299.453 1003.13 303.686 1003.39C306.101 1003.51 308.466 1002.68 310.283 1001.08C315.845 995.967 320.756 969.785 313.596 956.029Z" fill="#F06281"/>
<path opacity="0.5" d="M313.596 956.029C312.82 954.191 311.606 952.572 310.058 951.314C308.511 950.055 306.678 949.195 304.721 948.81C297.325 947.627 290.373 955.052 289.604 955.881C288.897 956.733 288.46 957.776 288.349 958.877C288.238 959.979 288.459 961.088 288.983 962.064C290.146 961.83 291.222 961.277 292.089 960.466C294.308 958.395 300.579 954.047 304.81 954.55C305.845 954.55 307.413 955.171 309.1 957.893C316.555 970.022 310.786 995.523 307.029 999.724C304.987 1000.61 297.355 999.044 291.408 996.529C290.677 996.221 289.894 996.051 289.101 996.026C289.155 996.837 289.41 997.621 289.844 998.308C290.278 998.996 290.877 999.563 291.586 999.961C295.327 1001.96 299.453 1003.13 303.686 1003.39C306.101 1003.51 308.466 1002.68 310.283 1001.08C315.845 995.967 320.756 969.785 313.596 956.029Z" fill="white"/>
</g>
<path d="M304.927 1012.89C298.495 1012.57 292.176 1011.06 286.29 1008.45C285.469 1008.15 284.718 1007.68 284.084 1007.08C283.45 1006.47 282.945 1005.75 282.6 1004.94C282.255 1004.14 282.077 1003.27 282.077 1002.4C282.078 1001.52 282.256 1000.66 282.602 999.855C282.947 999.051 283.453 998.325 284.088 997.723C284.723 997.121 285.474 996.654 286.295 996.351C287.116 996.048 287.99 995.916 288.864 995.962C289.738 996.008 290.593 996.231 291.378 996.618C297.295 999.132 304.957 1000.7 306.998 999.813C310.755 995.612 316.524 970.229 309.069 957.981C307.383 955.26 305.815 954.757 304.78 954.638C300.549 954.047 294.277 958.395 292.059 960.555C291.441 961.138 290.714 961.593 289.921 961.895C289.127 962.197 288.282 962.34 287.433 962.315C286.584 962.29 285.748 962.099 284.973 961.751C284.199 961.403 283.5 960.907 282.917 960.289C282.334 959.671 281.879 958.945 281.577 958.151C281.275 957.357 281.132 956.512 281.157 955.663C281.182 954.814 281.373 953.978 281.721 953.204C282.069 952.429 282.566 951.73 283.183 951.147C284.337 950.023 295.017 940.408 306.407 941.947C309.232 942.359 311.923 943.417 314.273 945.039C316.623 946.66 318.568 948.801 319.956 951.295C330.932 969.193 323.417 1003.24 314.986 1009.99C312.056 1012.06 308.511 1013.08 304.927 1012.89Z" stroke="#263238" stroke-linecap="round" stroke-linejoin="round"/>
<path d="M293.626 936.562H222.478V1030.99H293.626V936.562Z" fill="white"/>
<mask id="mask16_11_619" style="mask-type:luminance" maskUnits="userSpaceOnUse" x="222" y="936" width="72" height="95">
<path d="M293.625 936.562H222.477V1030.99H293.625V936.562Z" fill="white"/>
</mask>
<g mask="url(#mask16_11_619)">
<path d="M251.617 936.562H222.477V1030.99H251.617V936.562Z" fill="#F06281"/>
<path opacity="0.5" d="M251.617 936.562H222.477V1030.99H251.617V936.562Z" fill="white"/>
</g>
<path d="M293.626 936.562H222.478V1030.99H293.626V936.562Z" stroke="#263238" stroke-linecap="round" stroke-linejoin="round"/>
<path d="M684.606 1029.69H380.662L370.752 862.603C370.478 860.983 370.559 859.323 370.988 857.737C371.418 856.151 372.187 854.677 373.242 853.418C374.296 852.158 375.612 851.141 377.097 850.439C378.583 849.737 380.203 849.365 381.846 849.35H683.304C684.957 849.348 686.591 849.707 688.09 850.402C689.59 851.097 690.92 852.111 691.988 853.373C693.056 854.635 693.835 856.114 694.272 857.709C694.708 859.303 694.792 860.973 694.516 862.603L684.606 1029.69Z" fill="#263238" stroke="#263238" stroke-linecap="round" stroke-linejoin="round"/>
<path d="M395.632 853.344H681.115C682.728 853.327 684.325 853.663 685.794 854.329C687.263 854.994 688.569 855.972 689.62 857.196C690.671 858.419 691.442 859.857 691.879 861.409C692.316 862.962 692.409 864.591 692.15 866.183" stroke="white" stroke-linecap="round" stroke-linejoin="round"/>
<path d="M372.97 863.55C373.208 860.754 374.491 858.15 376.564 856.259C378.637 854.367 381.346 853.326 384.152 853.344" stroke="white" stroke-linecap="round" stroke-linejoin="round"/>
<path d="M685.877 1013.42H379.39V1029.69H685.877V1013.42Z" fill="white" stroke="#263238" stroke-linecap="round" stroke-linejoin="round"/>
<path d="M531.54 953.189C543.532 953.189 553.254 947.361 553.254 940.172C553.254 932.983 543.532 927.155 531.54 927.155C519.547 927.155 509.825 932.983 509.825 940.172C509.825 947.361 519.547 953.189 531.54 953.189Z" fill="white" stroke="#263238" stroke-linecap="round" stroke-linejoin="round"/>
<path d="M1148.15 1027.77H6.63477V1055.49H1148.15V1027.77Z" fill="#263238"/>
<path d="M852.169 0H303.006C284.494 0 269.487 15.0067 269.487 33.5184V348.615C269.487 367.127 284.494 382.133 303.006 382.133H852.169C870.681 382.133 885.687 367.127 885.687 348.615V33.5184C885.687 15.0067 870.681 0 852.169 0Z" fill="#F06281"/>
<path d="M592.078 219.601C641.893 211.595 675.786 164.722 667.78 114.908C659.774 65.0932 612.901 31.2004 563.087 39.2062C513.272 47.212 479.38 94.0846 487.385 143.899C495.391 193.714 542.264 227.606 592.078 219.601Z" fill="#263238"/>
<path d="M576.892 146.292L546.45 185.372C545.415 186.999 543.992 188.343 542.308 189.282C540.625 190.222 538.734 190.729 536.806 190.756C534.161 190.792 531.609 189.782 529.706 187.946C528.738 187.058 527.973 185.972 527.462 184.763C526.952 183.553 526.708 182.247 526.747 180.934C526.843 177.995 527.88 175.164 529.706 172.858L564.407 129.932L531.865 86.9763C530.353 84.9604 529.524 82.5144 529.499 79.9946C529.491 78.4917 529.794 77.0035 530.39 75.6237C530.986 74.2439 531.861 73.0024 532.96 71.9774C533.992 70.8997 535.232 70.0425 536.605 69.4577C537.978 68.873 539.455 68.5727 540.947 68.5752C542.859 68.6062 544.731 69.1152 546.395 70.0556C548.059 70.9961 549.461 72.3382 550.473 73.9595L579.88 112.685L609.463 74.6103C610.521 72.834 612 71.3459 613.77 70.2778C615.54 69.2096 617.546 68.5943 619.611 68.4865C620.892 68.4833 622.16 68.7444 623.336 69.2534C624.512 69.7624 625.57 70.5084 626.445 71.4449C627.377 72.3227 628.12 73.3815 628.629 74.5566C629.137 75.7317 629.401 76.9982 629.403 78.2787C629.371 80.5701 628.581 82.7863 627.155 84.58L592.334 129.133L625.971 173.509C627.561 175.492 628.446 177.949 628.486 180.491C628.495 181.96 628.186 183.415 627.578 184.753C626.97 186.091 626.079 187.282 624.965 188.242C622.795 190.329 619.9 191.495 616.889 191.496C614.968 191.472 613.085 190.966 611.41 190.026C609.735 189.085 608.323 187.739 607.304 186.112L576.892 146.292Z" fill="white"/>
<path d="M751.643 315.954H403.412C396.351 315.954 389.579 313.149 384.586 308.156C379.592 303.163 376.787 296.391 376.787 289.329C376.787 282.268 379.592 275.495 384.586 270.502C389.579 265.509 396.351 262.704 403.412 262.704H751.643C758.704 262.704 765.477 265.509 770.47 270.502C775.463 275.495 778.268 282.268 778.268 289.329C778.268 296.391 775.463 303.163 770.47 308.156C765.477 313.149 758.704 315.954 751.643 315.954Z" fill="white"/>
<path d="M451.131 297.908C450.899 297.908 450.669 297.861 450.455 297.77C450.241 297.678 450.049 297.544 449.888 297.376C449.713 297.202 449.576 296.994 449.484 296.765C449.393 296.536 449.349 296.291 449.356 296.045C449.356 295.628 449.468 295.219 449.681 294.861L452.344 290.72H446.901C446.649 290.732 446.397 290.692 446.163 290.6C445.928 290.508 445.716 290.367 445.54 290.187C445.236 289.833 445.068 289.382 445.068 288.915C445.068 288.448 445.236 287.997 445.54 287.643C445.716 287.463 445.928 287.322 446.163 287.23C446.397 287.138 446.649 287.097 446.901 287.11L452.255 287.258L449.888 283.412C449.651 283.018 449.519 282.57 449.504 282.111C449.497 281.864 449.541 281.619 449.632 281.39C449.724 281.161 449.861 280.953 450.036 280.779C450.202 280.61 450.4 280.476 450.619 280.385C450.837 280.293 451.072 280.246 451.308 280.247C451.64 280.242 451.965 280.335 452.244 280.514C452.523 280.693 452.743 280.95 452.876 281.253L455.48 285.897L457.965 281.46C458.121 281.115 458.37 280.819 458.683 280.605C458.996 280.391 459.361 280.267 459.74 280.247C459.972 280.247 460.202 280.294 460.416 280.386C460.629 280.477 460.822 280.611 460.982 280.779C461.156 280.942 461.293 281.139 461.385 281.359C461.476 281.578 461.521 281.814 461.515 282.051C461.511 282.472 461.388 282.882 461.16 283.235L458.556 287.406L463.97 287.258C464.222 287.243 464.474 287.283 464.709 287.375C464.944 287.467 465.156 287.609 465.331 287.791C465.635 288.145 465.802 288.596 465.802 289.063C465.802 289.53 465.635 289.981 465.331 290.335C465.156 290.517 464.944 290.659 464.709 290.75C464.474 290.842 464.222 290.882 463.97 290.867H458.497L460.923 294.654C461.197 295.111 461.35 295.631 461.367 296.163C461.375 296.403 461.335 296.642 461.249 296.865C461.162 297.089 461.031 297.293 460.864 297.465C460.708 297.631 460.521 297.763 460.312 297.855C460.104 297.947 459.879 297.995 459.651 297.997C459.285 297.988 458.929 297.875 458.625 297.671C458.321 297.466 458.082 297.179 457.935 296.843L455.48 292.495L453.024 296.843C452.847 297.186 452.573 297.469 452.237 297.658C451.9 297.848 451.516 297.934 451.131 297.908Z" fill="black"/>
<path d="M478.289 297.908C478.057 297.908 477.827 297.861 477.613 297.77C477.4 297.678 477.207 297.544 477.047 297.376C476.872 297.202 476.734 296.994 476.643 296.765C476.551 296.536 476.507 296.291 476.514 296.045C476.514 295.628 476.626 295.219 476.84 294.861L479.502 290.72H474.059C473.807 290.733 473.556 290.692 473.321 290.6C473.086 290.508 472.874 290.367 472.698 290.187C472.394 289.833 472.227 289.382 472.227 288.915C472.227 288.448 472.394 287.997 472.698 287.643C472.874 287.463 473.086 287.322 473.321 287.23C473.556 287.138 473.807 287.097 474.059 287.11L479.413 287.258L476.899 283.264C476.661 282.871 476.529 282.422 476.514 281.963C476.507 281.716 476.551 281.471 476.643 281.242C476.734 281.013 476.872 280.805 477.047 280.632C477.212 280.462 477.41 280.328 477.629 280.237C477.847 280.145 478.082 280.098 478.319 280.099C478.65 280.094 478.975 280.187 479.254 280.366C479.533 280.545 479.753 280.802 479.887 281.105L482.49 285.75L484.975 281.312C485.132 280.967 485.38 280.671 485.693 280.457C486.006 280.243 486.372 280.119 486.75 280.099C486.982 280.099 487.212 280.146 487.426 280.238C487.64 280.329 487.832 280.463 487.993 280.632C488.166 280.794 488.303 280.991 488.395 281.211C488.487 281.43 488.531 281.666 488.525 281.904C488.521 282.324 488.398 282.734 488.17 283.087L485.567 287.258L490.981 287.11C491.232 287.096 491.484 287.135 491.719 287.227C491.954 287.319 492.167 287.461 492.341 287.643C492.646 287.997 492.813 288.448 492.813 288.915C492.813 289.382 492.646 289.833 492.341 290.187C492.167 290.369 491.954 290.511 491.719 290.603C491.484 290.695 491.232 290.734 490.981 290.72H485.508L487.933 294.506C488.207 294.963 488.36 295.483 488.377 296.015C488.386 296.255 488.345 296.494 488.259 296.717C488.173 296.941 488.042 297.145 487.874 297.317C487.719 297.483 487.531 297.616 487.322 297.707C487.114 297.799 486.889 297.847 486.661 297.849C486.294 297.844 485.937 297.732 485.632 297.527C485.327 297.322 485.089 297.033 484.946 296.695L482.49 292.347L480.035 296.695C479.889 297.043 479.647 297.341 479.338 297.556C479.029 297.77 478.665 297.893 478.289 297.908Z" fill="black"/>
<path d="M505.447 297.908C505.215 297.908 504.985 297.861 504.771 297.77C504.558 297.678 504.365 297.544 504.205 297.376C504.03 297.202 503.892 296.994 503.801 296.765C503.709 296.536 503.665 296.291 503.672 296.045C503.672 295.628 503.784 295.219 503.998 294.861L506.66 290.72H501.217C500.965 290.733 500.714 290.692 500.479 290.6C500.244 290.508 500.032 290.367 499.856 290.187C499.552 289.833 499.385 289.382 499.385 288.915C499.385 288.448 499.552 287.997 499.856 287.643C500.032 287.463 500.244 287.322 500.479 287.23C500.714 287.138 500.965 287.097 501.217 287.11L506.572 287.258L504.057 283.264C503.82 282.871 503.687 282.422 503.672 281.963C503.665 281.716 503.709 281.471 503.801 281.242C503.892 281.013 504.03 280.805 504.205 280.632C504.371 280.462 504.569 280.328 504.787 280.237C505.006 280.145 505.24 280.098 505.477 280.099C505.808 280.094 506.134 280.187 506.412 280.366C506.691 280.545 506.911 280.802 507.045 281.105L509.648 285.75L512.133 281.312C512.29 280.967 512.538 280.671 512.851 280.457C513.164 280.243 513.53 280.119 513.908 280.099C514.141 280.099 514.371 280.146 514.584 280.238C514.798 280.329 514.991 280.463 515.151 280.632C515.324 280.794 515.461 280.991 515.553 281.211C515.645 281.43 515.689 281.666 515.683 281.904C515.679 282.324 515.556 282.734 515.328 283.087L512.725 287.258L518.139 287.11C518.391 287.096 518.643 287.135 518.878 287.227C519.113 287.319 519.325 287.461 519.5 287.643C519.804 287.997 519.971 288.448 519.971 288.915C519.971 289.382 519.804 289.833 519.5 290.187C519.325 290.369 519.113 290.511 518.878 290.603C518.643 290.695 518.391 290.734 518.139 290.72H512.666L515.092 294.506C515.365 294.963 515.518 295.483 515.535 296.015C515.544 296.255 515.504 296.494 515.417 296.717C515.331 296.941 515.2 297.145 515.033 297.317C514.877 297.483 514.689 297.616 514.481 297.707C514.272 297.799 514.047 297.847 513.82 297.849C513.453 297.844 513.095 297.732 512.79 297.527C512.486 297.322 512.247 297.033 512.104 296.695L509.648 292.347L507.193 296.695C507.047 297.043 506.806 297.341 506.496 297.556C506.187 297.77 505.823 297.893 505.447 297.908Z" fill="black"/>
<path d="M532.724 297.908C532.491 297.908 532.261 297.861 532.048 297.77C531.834 297.678 531.641 297.544 531.481 297.376C531.306 297.202 531.169 296.994 531.077 296.765C530.985 296.536 530.942 296.291 530.949 296.045C530.948 295.628 531.061 295.219 531.274 294.861L533.937 290.72H528.493C528.242 290.733 527.99 290.692 527.755 290.6C527.521 290.508 527.308 290.367 527.132 290.187C526.828 289.833 526.661 289.382 526.661 288.915C526.661 288.448 526.828 287.997 527.132 287.643C527.308 287.463 527.521 287.322 527.755 287.23C527.99 287.138 528.242 287.097 528.493 287.11L533.848 287.258L531.333 283.264C531.096 282.871 530.964 282.422 530.949 281.963C530.942 281.716 530.985 281.471 531.077 281.242C531.169 281.013 531.306 280.805 531.481 280.632C531.647 280.462 531.845 280.328 532.063 280.237C532.282 280.145 532.516 280.098 532.753 280.099C533.085 280.094 533.41 280.187 533.689 280.366C533.968 280.545 534.188 280.802 534.321 281.105L536.925 285.75L539.41 281.312C539.566 280.967 539.814 280.671 540.127 280.457C540.44 280.243 540.806 280.119 541.185 280.099C541.417 280.099 541.647 280.146 541.861 280.238C542.074 280.329 542.267 280.463 542.427 280.632C542.601 280.794 542.738 280.991 542.829 281.211C542.921 281.43 542.966 281.666 542.96 281.904C542.956 282.324 542.833 282.734 542.605 283.087L540.001 287.258L545.415 287.11C545.667 287.096 545.919 287.135 546.154 287.227C546.389 287.319 546.601 287.461 546.776 287.643C547.08 287.997 547.247 288.448 547.247 288.915C547.247 289.382 547.08 289.833 546.776 290.187C546.601 290.369 546.389 290.511 546.154 290.603C545.919 290.695 545.667 290.734 545.415 290.72H539.942L542.368 294.506C542.642 294.963 542.794 295.483 542.812 296.015C542.82 296.255 542.78 296.494 542.694 296.717C542.607 296.941 542.476 297.145 542.309 297.317C542.153 297.483 541.965 297.616 541.757 297.707C541.548 297.799 541.324 297.847 541.096 297.849C540.73 297.84 540.374 297.727 540.07 297.523C539.766 297.318 539.526 297.031 539.38 296.695L536.925 292.347L534.469 296.695C534.323 297.043 534.082 297.341 533.773 297.556C533.464 297.77 533.1 297.893 532.724 297.908Z" fill="black"/>
<path d="M559.763 297.908C559.53 297.908 559.3 297.861 559.087 297.77C558.873 297.678 558.681 297.544 558.52 297.376C558.345 297.202 558.208 296.994 558.116 296.765C558.025 296.536 557.981 296.291 557.988 296.045C558.001 295.63 558.113 295.225 558.313 294.861L560.976 290.72H555.532C555.281 290.733 555.029 290.692 554.795 290.6C554.56 290.508 554.348 290.367 554.171 290.187C553.867 289.833 553.7 289.382 553.7 288.915C553.7 288.448 553.867 287.997 554.171 287.643C554.348 287.463 554.56 287.322 554.795 287.23C555.029 287.138 555.281 287.097 555.532 287.11L560.887 287.258L558.372 283.264C558.135 282.871 558.003 282.422 557.988 281.963C557.981 281.716 558.025 281.471 558.116 281.242C558.208 281.013 558.345 280.805 558.52 280.632C558.686 280.462 558.884 280.328 559.103 280.237C559.321 280.145 559.556 280.098 559.792 280.099C560.124 280.094 560.449 280.187 560.728 280.366C561.007 280.545 561.227 280.802 561.36 281.105L563.964 285.75L566.449 281.312C566.605 280.967 566.854 280.671 567.166 280.457C567.479 280.243 567.845 280.119 568.224 280.099C568.457 280.095 568.688 280.141 568.902 280.233C569.116 280.325 569.308 280.46 569.466 280.632C569.64 280.794 569.777 280.991 569.869 281.211C569.96 281.43 570.005 281.666 569.999 281.904C569.995 282.324 569.872 282.734 569.644 283.087L567.04 287.258L572.454 287.11C572.706 287.096 572.958 287.135 573.193 287.227C573.428 287.319 573.64 287.461 573.815 287.643C574.119 287.997 574.286 288.448 574.286 288.915C574.286 289.382 574.119 289.833 573.815 290.187C573.64 290.369 573.428 290.511 573.193 290.603C572.958 290.695 572.706 290.734 572.454 290.72H566.981L569.407 294.506C569.681 294.963 569.834 295.483 569.851 296.015C569.859 296.255 569.819 296.494 569.733 296.717C569.646 296.941 569.515 297.145 569.348 297.317C569.192 297.483 569.004 297.616 568.796 297.707C568.588 297.799 568.363 297.847 568.135 297.849C567.769 297.84 567.413 297.727 567.109 297.523C566.805 297.318 566.566 297.031 566.419 296.695L563.964 292.347L561.508 296.695C561.362 297.043 561.121 297.341 560.812 297.556C560.503 297.771 560.139 297.893 559.763 297.908Z" fill="black"/>
<path d="M586.921 297.908C586.689 297.908 586.459 297.861 586.245 297.77C586.031 297.678 585.839 297.544 585.678 297.376C585.503 297.202 585.366 296.994 585.274 296.765C585.183 296.536 585.139 296.291 585.146 296.045C585.16 295.63 585.271 295.225 585.471 294.861L588.134 290.72H582.72C582.464 290.735 582.207 290.695 581.967 290.603C581.728 290.512 581.51 290.37 581.33 290.187C581.026 289.833 580.858 289.382 580.858 288.915C580.858 288.448 581.026 287.997 581.33 287.643C581.51 287.46 581.728 287.318 581.967 287.227C582.207 287.135 582.464 287.095 582.72 287.11L588.045 287.258L585.531 283.264C585.293 282.871 585.161 282.422 585.146 281.963C585.139 281.716 585.183 281.471 585.274 281.242C585.366 281.013 585.503 280.805 585.678 280.632C585.844 280.462 586.042 280.328 586.261 280.237C586.479 280.145 586.714 280.098 586.951 280.099C587.282 280.094 587.607 280.187 587.886 280.366C588.165 280.545 588.385 280.802 588.519 281.105L591.122 285.75L593.607 281.312C593.763 280.967 594.012 280.671 594.325 280.457C594.638 280.243 595.003 280.119 595.382 280.099C595.615 280.095 595.846 280.141 596.06 280.233C596.274 280.325 596.466 280.46 596.624 280.632C596.798 280.794 596.935 280.991 597.027 281.211C597.118 281.43 597.163 281.666 597.157 281.904C597.153 282.324 597.03 282.734 596.802 283.087L594.199 287.258L599.612 287.11C599.864 287.096 600.116 287.135 600.351 287.227C600.586 287.319 600.798 287.461 600.973 287.643C601.277 287.997 601.445 288.448 601.445 288.915C601.445 289.382 601.277 289.833 600.973 290.187C600.798 290.369 600.586 290.511 600.351 290.603C600.116 290.695 599.864 290.734 599.612 290.72H594.139L596.565 294.506C596.839 294.963 596.992 295.483 597.009 296.015C597.018 296.255 596.977 296.494 596.891 296.717C596.804 296.941 596.674 297.145 596.506 297.317C596.35 297.483 596.163 297.616 595.954 297.707C595.746 297.799 595.521 297.847 595.293 297.849C594.927 297.84 594.571 297.727 594.267 297.523C593.963 297.318 593.724 297.031 593.577 296.695L591.122 292.347L588.666 296.695C588.521 297.043 588.279 297.341 587.97 297.556C587.661 297.771 587.297 297.893 586.921 297.908Z" fill="black"/>
<path d="M614.079 297.908C613.847 297.908 613.617 297.861 613.403 297.77C613.19 297.678 612.997 297.544 612.837 297.376C612.662 297.202 612.524 296.994 612.432 296.765C612.341 296.536 612.297 296.291 612.304 296.045C612.304 295.628 612.416 295.219 612.63 294.861L615.292 290.72H609.849C609.597 290.732 609.346 290.692 609.111 290.6C608.876 290.508 608.664 290.367 608.488 290.187C608.184 289.833 608.017 289.382 608.017 288.915C608.017 288.448 608.184 287.997 608.488 287.643C608.664 287.463 608.876 287.322 609.111 287.23C609.346 287.138 609.597 287.097 609.849 287.11L615.203 287.258L612.6 283.412C612.363 283.018 612.23 282.57 612.215 282.111C612.208 281.864 612.252 281.619 612.344 281.39C612.435 281.161 612.573 280.953 612.748 280.779C612.914 280.61 613.112 280.476 613.33 280.385C613.549 280.293 613.783 280.246 614.02 280.247C614.351 280.242 614.677 280.335 614.955 280.514C615.234 280.693 615.454 280.95 615.588 281.253L618.191 285.897L620.676 281.46C620.833 281.115 621.081 280.819 621.394 280.605C621.707 280.391 622.073 280.267 622.451 280.247C622.684 280.243 622.915 280.289 623.129 280.381C623.344 280.472 623.536 280.608 623.694 280.779C623.867 280.942 624.004 281.139 624.096 281.359C624.188 281.578 624.232 281.814 624.226 282.052C624.222 282.472 624.099 282.882 623.871 283.235L621.268 287.406L626.682 287.258C626.934 287.243 627.186 287.283 627.421 287.375C627.656 287.467 627.868 287.609 628.043 287.791C628.347 288.145 628.514 288.596 628.514 289.063C628.514 289.53 628.347 289.981 628.043 290.335C627.868 290.517 627.656 290.659 627.421 290.75C627.186 290.842 626.934 290.882 626.682 290.868H621.209L623.635 294.654C623.908 295.111 624.061 295.631 624.078 296.163C624.087 296.403 624.047 296.642 623.96 296.865C623.874 297.089 623.743 297.293 623.576 297.465C623.42 297.631 623.232 297.763 623.024 297.855C622.815 297.947 622.59 297.995 622.363 297.997C621.996 297.988 621.64 297.875 621.336 297.671C621.032 297.466 620.793 297.179 620.647 296.843L618.191 292.495L615.736 296.843C615.576 297.15 615.34 297.409 615.049 297.596C614.759 297.783 614.424 297.891 614.079 297.908Z" fill="black"/>
<path d="M641.237 297.908C641.005 297.908 640.775 297.861 640.561 297.77C640.348 297.678 640.155 297.544 639.995 297.376C639.82 297.202 639.682 296.994 639.591 296.765C639.499 296.536 639.455 296.291 639.462 296.045C639.476 295.63 639.587 295.225 639.788 294.861L642.45 290.72H637.036C636.784 290.739 636.531 290.701 636.295 290.608C636.06 290.516 635.848 290.372 635.675 290.187C635.353 289.842 635.174 289.387 635.174 288.915C635.174 288.443 635.353 287.988 635.675 287.643C635.848 287.458 636.06 287.314 636.295 287.222C636.531 287.129 636.784 287.091 637.036 287.11L642.361 287.258L639.847 283.264C639.609 282.871 639.477 282.422 639.462 281.963C639.454 281.721 639.495 281.48 639.582 281.254C639.669 281.028 639.801 280.822 639.969 280.648C640.138 280.474 640.339 280.336 640.562 280.242C640.785 280.147 641.025 280.099 641.267 280.099C641.598 280.094 641.923 280.187 642.202 280.366C642.481 280.545 642.701 280.802 642.835 281.105L645.438 285.749L647.923 281.312C648.08 280.967 648.328 280.671 648.641 280.457C648.954 280.243 649.32 280.119 649.698 280.099C649.932 280.091 650.164 280.135 650.379 280.227C650.593 280.319 650.785 280.457 650.941 280.631C651.114 280.794 651.251 280.991 651.343 281.211C651.435 281.43 651.479 281.666 651.473 281.904C651.469 282.324 651.346 282.734 651.118 283.087L648.515 287.258L653.929 287.11C654.18 287.095 654.433 287.135 654.668 287.227C654.902 287.319 655.115 287.461 655.289 287.643C655.594 287.997 655.761 288.448 655.761 288.915C655.761 289.382 655.594 289.833 655.289 290.187C655.115 290.369 654.902 290.511 654.668 290.603C654.433 290.694 654.18 290.734 653.929 290.72H648.456L650.882 294.506C651.155 294.963 651.308 295.483 651.325 296.015C651.333 296.248 651.295 296.481 651.213 296.699C651.131 296.917 651.007 297.117 650.847 297.288C650.688 297.458 650.497 297.595 650.284 297.692C650.072 297.788 649.843 297.842 649.609 297.849C649.243 297.84 648.887 297.727 648.583 297.523C648.279 297.318 648.04 297.031 647.894 296.695L645.438 292.347L642.983 296.695C642.837 297.042 642.595 297.341 642.286 297.556C641.977 297.77 641.613 297.893 641.237 297.908Z" fill="black"/>
<path d="M668.394 297.908C668.162 297.908 667.932 297.861 667.719 297.77C667.505 297.678 667.312 297.544 667.152 297.376C666.977 297.202 666.839 296.994 666.748 296.765C666.656 296.536 666.613 296.291 666.619 296.045C666.633 295.63 666.745 295.225 666.945 294.861L669.607 290.72H664.164C663.917 290.734 663.669 290.694 663.439 290.602C663.209 290.51 663.002 290.368 662.833 290.187C662.51 289.842 662.331 289.387 662.331 288.915C662.331 288.443 662.51 287.988 662.833 287.643C663.002 287.462 663.209 287.32 663.439 287.228C663.669 287.136 663.917 287.096 664.164 287.11L669.519 287.258L667.004 283.264C666.767 282.871 666.634 282.422 666.619 281.963C666.612 281.721 666.652 281.48 666.739 281.254C666.827 281.028 666.958 280.822 667.127 280.648C667.295 280.474 667.497 280.336 667.719 280.242C667.942 280.147 668.182 280.099 668.424 280.099C668.755 280.094 669.081 280.187 669.36 280.366C669.638 280.545 669.858 280.802 669.992 281.105L672.595 285.749L675.08 281.312C675.237 280.967 675.485 280.671 675.798 280.457C676.111 280.243 676.477 280.119 676.855 280.099C677.089 280.091 677.321 280.135 677.536 280.227C677.75 280.319 677.942 280.457 678.098 280.631C678.271 280.794 678.408 280.991 678.5 281.211C678.592 281.43 678.636 281.666 678.63 281.904C678.627 282.324 678.503 282.734 678.275 283.087L675.672 287.258L681.086 287.11C681.338 287.095 681.59 287.135 681.825 287.227C682.06 287.319 682.272 287.461 682.447 287.643C682.751 287.997 682.918 288.448 682.918 288.915C682.918 289.382 682.751 289.833 682.447 290.187C682.272 290.369 682.06 290.511 681.825 290.603C681.59 290.694 681.338 290.734 681.086 290.72H675.613L678.039 294.506C678.312 294.963 678.465 295.483 678.482 296.015C678.49 296.248 678.452 296.481 678.37 296.699C678.288 296.917 678.164 297.117 678.005 297.288C677.845 297.458 677.654 297.595 677.442 297.692C677.229 297.788 677 297.842 676.767 297.849C676.4 297.84 676.044 297.727 675.74 297.523C675.436 297.318 675.197 297.031 675.051 296.695L672.595 292.347L670.14 296.695C669.994 297.042 669.753 297.341 669.444 297.556C669.134 297.77 668.771 297.893 668.394 297.908Z" fill="black"/>
<path d="M695.434 297.908C695.202 297.908 694.972 297.861 694.759 297.77C694.545 297.678 694.352 297.544 694.192 297.376C694.017 297.202 693.879 296.994 693.788 296.765C693.696 296.536 693.653 296.291 693.659 296.045C693.673 295.63 693.785 295.225 693.985 294.861L696.647 290.72H691.204C690.957 290.734 690.709 290.694 690.479 290.602C690.249 290.51 690.042 290.368 689.873 290.187C689.55 289.842 689.371 289.387 689.371 288.915C689.371 288.443 689.55 287.988 689.873 287.643C690.042 287.462 690.249 287.32 690.479 287.228C690.709 287.136 690.957 287.096 691.204 287.11L696.559 287.258L694.044 283.264C693.807 282.871 693.674 282.422 693.659 281.963C693.653 281.716 693.696 281.471 693.788 281.242C693.879 281.013 694.017 280.805 694.192 280.631C694.358 280.462 694.556 280.328 694.774 280.237C694.993 280.145 695.227 280.098 695.464 280.099C695.795 280.094 696.121 280.187 696.399 280.366C696.678 280.545 696.898 280.802 697.032 281.105L699.635 285.749L702.12 281.312C702.277 280.967 702.525 280.671 702.838 280.457C703.151 280.243 703.517 280.119 703.895 280.099C704.129 280.091 704.361 280.135 704.576 280.227C704.79 280.319 704.982 280.457 705.138 280.631C705.311 280.794 705.448 280.991 705.54 281.211C705.632 281.43 705.676 281.666 705.67 281.904C705.667 282.324 705.543 282.734 705.315 283.087L702.712 287.258L708.126 287.11C708.378 287.095 708.63 287.135 708.865 287.227C709.1 287.319 709.312 287.461 709.487 287.643C709.791 287.997 709.958 288.448 709.958 288.915C709.958 289.382 709.791 289.833 709.487 290.187C709.312 290.369 709.1 290.511 708.865 290.603C708.63 290.694 708.378 290.734 708.126 290.72H702.653L705.079 294.506C705.352 294.963 705.505 295.483 705.523 296.015C705.531 296.255 705.491 296.494 705.404 296.717C705.318 296.941 705.187 297.145 705.02 297.317C704.864 297.483 704.676 297.616 704.468 297.707C704.259 297.799 704.034 297.847 703.807 297.849C703.44 297.84 703.084 297.727 702.78 297.523C702.477 297.318 702.237 297.031 702.091 296.695L699.635 292.347L697.18 296.695C697.034 297.042 696.793 297.341 696.484 297.556C696.174 297.77 695.811 297.893 695.434 297.908Z" fill="black"/>
<path d="M788.505 363.348H824.686" stroke="white" stroke-width="3" stroke-linecap="round" stroke-linejoin="round"/>
<path d="M286.676 96.9459V337.255C286.676 344.214 289.44 350.889 294.362 355.81C299.283 360.731 305.957 363.496 312.917 363.496H754.158" stroke="white" stroke-width="3" stroke-linecap="round" stroke-linejoin="round"/>
<path d="M286.676 33.2225V69.2556" stroke="white" stroke-width="3" stroke-linecap="round" stroke-linejoin="round"/>
</svg>
