<svg width="105" height="72" viewBox="0 0 105 72" fill="none" xmlns="http://www.w3.org/2000/svg">
<path d="M76.0087 34.8028L76.0087 18.9383C76.0087 18.9383 63.7705 20.4987 53.2334 25.7238C42.6962 20.4987 30.4581 18.9383 30.4581 18.9383L30.4581 34.8028C26.8669 35.6067 23.9609 36.5761 22 37.6873C28.6152 35.6067 40.121 34.2118 53.2097 34.2118C66.2985 34.2118 77.8043 35.5831 84.4195 37.6873C82.4822 36.5761 79.5998 35.6067 76.0087 34.8028Z" fill="#F06281"/>
<path d="M33.7894 17.2359L33.7894 19.482C38.1365 20.3095 46.0748 22.1537 53.2334 25.7238C44.7754 19.0801 33.7894 17.2359 33.7894 17.2359Z" fill="#F06281"/>
<path d="M72.701 17.2359C72.701 17.2359 61.715 19.0801 53.257 25.7238C60.4156 22.1773 68.3539 20.3095 72.701 19.482L72.701 17.2359Z" fill="#F06281"/>
<path d="M53.2571 17.4486C52.8082 18.4417 52.123 19.3165 51.3198 20.0021L53.2335 23.3358L55.1944 20.0021C54.3675 19.3165 53.706 18.4417 53.2571 17.4486Z" fill="#F06281"/>
<path d="M47.4452 14.9662C48.721 14.9662 49.7841 13.9259 49.7841 12.6255C49.7841 11.3488 48.7446 10.2848 47.4452 10.2848C46.1694 10.2848 45.1062 11.3251 45.1062 12.6255C45.1062 13.9259 46.1457 14.9662 47.4452 14.9662ZM46.6655 10.9941C47.1617 10.9941 47.5633 11.3961 47.5633 11.8926C47.5633 12.3891 47.1617 12.791 46.6655 12.791C46.1694 12.791 45.7677 12.3891 45.7677 11.8926C45.7677 11.3961 46.1694 10.9941 46.6655 10.9941Z" fill="#F06281"/>
<path d="M56.7064 12.6255C56.7064 13.9022 57.7459 14.9662 59.0217 14.9662C60.2975 14.9662 61.3606 13.9259 61.3606 12.6255C61.3606 11.3488 60.3211 10.2848 59.0217 10.2848C57.7695 10.3085 56.7064 11.3488 56.7064 12.6255ZM59.3052 11.8926C59.3052 12.3891 58.9036 12.791 58.4074 12.791C57.9113 12.791 57.5096 12.3891 57.5096 11.8926C57.5096 11.3961 57.9113 10.9941 58.4074 10.9941C58.9036 10.9941 59.3052 11.3961 59.3052 11.8926Z" fill="#F06281"/>
<path d="M42.9798 17.2122C44.1375 18.3471 45.7204 19.0328 47.4451 19.0328C49.9967 19.0328 52.2175 17.5196 53.257 15.3444C54.2729 17.5196 56.4938 19.0328 59.069 19.0328C60.8173 19.0328 62.3766 18.3235 63.5343 17.2122C64.0304 17.9215 64.4557 18.6781 64.8101 19.4583C66.2513 18.9146 67.5743 18.5126 68.732 18.1816C67.9759 16.6212 66.7946 15.2262 65.3062 14.0441C65.4007 13.5948 65.4716 13.0983 65.4716 12.6255C65.4716 11.6797 65.259 10.7813 64.8809 9.95379C64.4321 8.62978 63.7469 7.40033 62.8728 6.31274L62.8255 1.52556e-05L57.5806 2.4589C56.2103 1.93875 54.7455 1.67868 53.257 1.67868C51.7686 1.67868 50.3038 1.93875 48.9335 2.4589L43.6649 1.5258e-05L43.6177 6.31274C42.7672 7.40033 42.082 8.60613 41.6331 9.9065C41.2551 10.734 41.0188 11.6561 41.0188 12.6255C41.0188 13.122 41.0661 13.5948 41.1842 14.0441C39.6958 15.2262 38.5381 16.6212 37.7821 18.1816C38.9161 18.5126 40.2628 18.9382 41.704 19.4583C42.0584 18.6781 42.4836 17.9215 42.9798 17.2122ZM64.1013 12.6255C64.1013 15.4154 61.8332 17.6851 59.0454 17.6851C56.2575 17.6851 53.9894 15.4154 53.9894 12.6255C53.9894 9.83557 56.2575 7.56583 59.0454 7.56583C61.8332 7.58947 64.1013 9.85922 64.1013 12.6255ZM53.2334 3.02634C56.4465 3.02634 59.3761 4.42129 61.3843 6.66739C60.6519 6.38367 59.8486 6.21817 59.0217 6.21817C56.4701 6.21817 54.2493 7.73133 53.2098 9.9065C52.1939 7.73133 49.973 6.21817 47.3978 6.21817C46.5709 6.21817 45.7676 6.38367 45.0589 6.66739C47.1143 4.42129 50.0203 3.02634 53.2334 3.02634ZM47.4451 7.58948C50.2329 7.58948 52.501 9.85922 52.501 12.6491C52.501 15.439 50.2329 17.7087 47.4451 17.7087C44.6572 17.7087 42.3891 15.439 42.3891 12.6491C42.3891 9.85922 44.6572 7.58948 47.4451 7.58948Z" fill="#F06281"/>
<path d="M15.81 57.38C15.81 59.48 15.07 61.28 13.59 62.78C12.11 64.26 10.32 65 8.22 65C6.12 65 4.32 64.26 2.82 62.78C1.34 61.28 0.6 59.48 0.6 57.38C0.6 55.28 1.34 53.49 2.82 52.01C4.32 50.53 6.12 49.79 8.22 49.79C10.32 49.79 12.11 50.53 13.59 52.01C15.07 53.49 15.81 55.28 15.81 57.38ZM10.71 57.38C10.71 56.68 10.47 56.09 9.99 55.61C9.51 55.13 8.92 54.89 8.22 54.89C7.52 54.89 6.92 55.14 6.42 55.64C5.94 56.12 5.7 56.7 5.7 57.38C5.7 58.06 5.95 58.65 6.45 59.15C6.95 59.65 7.54 59.9 8.22 59.9C8.9 59.9 9.48 59.66 9.96 59.18C10.46 58.68 10.71 58.08 10.71 57.38ZM32.3363 62.45C32.3363 63.15 32.0863 63.75 31.5863 64.25C31.0863 64.75 30.4863 65 29.7863 65C29.0863 65 28.4863 64.75 27.9863 64.25C27.4863 63.75 27.2363 63.15 27.2363 62.45V57.38C27.2363 56.68 26.9863 56.09 26.4863 55.61C26.0063 55.11 25.4263 54.86 24.7463 54.86C24.0663 54.86 23.4763 55.11 22.9763 55.61C22.4763 56.09 22.2263 56.68 22.2263 57.38V62.45C22.2263 63.15 21.9763 63.75 21.4763 64.25C20.9763 64.75 20.3763 65 19.6763 65C18.9763 65 18.3763 64.75 17.8763 64.25C17.3763 63.75 17.1263 63.15 17.1263 62.45V57.38C17.1263 55.28 17.8663 53.49 19.3463 52.01C20.8463 50.51 22.6463 49.76 24.7463 49.76C26.8463 49.76 28.6363 50.51 30.1163 52.01C31.5963 53.49 32.3363 55.28 32.3363 57.38V62.45ZM38.8969 62.45C38.8969 63.15 38.6469 63.75 38.1469 64.25C37.6469 64.75 37.0469 65 36.3469 65C35.6469 65 35.0469 64.75 34.5469 64.25C34.0469 63.75 33.7969 63.15 33.7969 62.45V47.18C33.7969 46.48 34.0469 45.88 34.5469 45.38C35.0469 44.88 35.6469 44.63 36.3469 44.63C37.0469 44.63 37.6469 44.88 38.1469 45.38C38.6469 45.88 38.8969 46.48 38.8969 47.18V62.45ZM55.5087 62.45C55.5087 63.15 55.2587 63.75 54.7587 64.25C54.2587 64.75 53.6587 65 52.9587 65H47.9487C45.8487 65 44.0487 64.26 42.5487 62.78C41.0487 61.28 40.2987 59.48 40.2987 57.38C40.2987 55.28 41.0387 53.49 42.5187 52.01C44.0187 50.51 45.8187 49.76 47.9187 49.76C49.6987 49.76 51.2787 50.31 52.6587 51.41C54.0387 52.51 54.9287 53.93 55.3287 55.67C55.3887 55.79 55.4187 55.98 55.4187 56.24C55.4187 56.94 55.1687 57.54 54.6687 58.04C54.1687 58.54 53.5687 58.79 52.8687 58.79C51.6087 58.79 50.7787 58.14 50.3787 56.84C49.9987 55.54 49.1887 54.89 47.9487 54.89C47.2487 54.89 46.6487 55.14 46.1487 55.64C45.6487 56.12 45.3987 56.7 45.3987 57.38C45.3987 58.06 45.6487 58.65 46.1487 59.15C46.6487 59.65 47.2387 59.9 47.9187 59.9H52.9287C53.6287 59.9 54.2287 60.15 54.7287 60.65C55.2487 61.15 55.5087 61.75 55.5087 62.45ZM72.1821 62.45C72.1821 63.15 71.9321 63.75 71.4321 64.25C70.9321 64.75 70.3321 65 69.6321 65H64.5621C62.4821 65 60.6921 64.26 59.1921 62.78C57.6921 61.28 56.9421 59.48 56.9421 57.38C56.9421 55.28 57.6821 53.49 59.1621 52.01C60.6621 50.53 62.4521 49.79 64.5321 49.79C66.6321 49.79 68.4321 50.53 69.9321 52.01C71.4321 53.49 72.1821 55.28 72.1821 57.38V62.45ZM67.0821 57.38C67.0821 56.7 66.8321 56.12 66.3321 55.64C65.8521 55.14 65.2621 54.89 64.5621 54.89C63.8621 54.89 63.2621 55.14 62.7621 55.64C62.2821 56.12 62.0421 56.7 62.0421 57.38C62.0421 58.08 62.2821 58.68 62.7621 59.18C63.2621 59.66 63.8521 59.9 64.5321 59.9H67.0521L67.0821 57.38ZM87.2592 52.31C87.2592 53.01 87.0092 53.61 86.5092 54.11C86.0092 54.61 85.4092 54.86 84.7092 54.86H80.9592C80.2792 54.86 79.6892 55.11 79.1892 55.61C78.6892 56.09 78.4392 56.68 78.4392 57.38V62.45C78.4392 63.15 78.1892 63.75 77.6892 64.25C77.1892 64.75 76.5892 65 75.8892 65C75.1892 65 74.5792 64.75 74.0592 64.25C73.5592 63.75 73.3092 63.15 73.3092 62.45V57.38C73.3092 55.28 74.0492 53.49 75.5292 52.01C77.0292 50.51 78.8292 49.76 80.9292 49.76H84.6792C85.3792 49.76 85.9792 50.01 86.4792 50.51C86.9992 51.01 87.2592 51.61 87.2592 52.31ZM103.557 62.45C103.557 63.15 103.307 63.75 102.807 64.25C102.307 64.75 101.707 65 101.007 65C100.307 65 99.707 64.75 99.207 64.25C98.707 63.75 98.457 63.15 98.457 62.45V57.38C98.457 56.68 98.207 56.09 97.707 55.61C97.227 55.11 96.647 54.86 95.967 54.86C95.287 54.86 94.697 55.11 94.197 55.61C93.697 56.09 93.447 56.68 93.447 57.38V62.45C93.447 63.15 93.197 63.75 92.697 64.25C92.197 64.75 91.597 65 90.897 65C90.197 65 89.597 64.75 89.097 64.25C88.597 63.75 88.347 63.15 88.347 62.45V57.38C88.347 55.28 89.087 53.49 90.567 52.01C92.067 50.51 93.867 49.76 95.967 49.76C98.067 49.76 99.857 50.51 101.337 52.01C102.817 53.49 103.557 55.28 103.557 57.38V62.45Z" fill="#F06281"/>
</svg>
