<svg width="32" height="32" viewBox="0 0 32 32" fill="none" xmlns="http://www.w3.org/2000/svg">
<path d="M3.19995 17.6C3.19995 17.1757 3.36852 16.7687 3.66858 16.4686C3.96864 16.1686 4.3756 16 4.79995 16H7.99995C8.4243 16 8.83126 16.1686 9.13132 16.4686C9.43138 16.7687 9.59995 17.1757 9.59995 17.6V25.6C9.59995 26.0243 9.43138 26.4313 9.13132 26.7314C8.83126 27.0314 8.4243 27.2 7.99995 27.2H4.79995C4.3756 27.2 3.96864 27.0314 3.66858 26.7314C3.36852 26.4313 3.19995 26.0243 3.19995 25.6V17.6ZM12.8 11.2C12.8 10.7757 12.9685 10.3687 13.2686 10.0686C13.5686 9.76857 13.9756 9.6 14.4 9.6H17.6C18.0243 9.6 18.4313 9.76857 18.7313 10.0686C19.0314 10.3687 19.2 10.7757 19.2 11.2V25.6C19.2 26.0243 19.0314 26.4313 18.7313 26.7314C18.4313 27.0314 18.0243 27.2 17.6 27.2H14.4C13.9756 27.2 13.5686 27.0314 13.2686 26.7314C12.9685 26.4313 12.8 26.0243 12.8 25.6V11.2ZM22.4 6.4C22.4 5.97566 22.5685 5.56869 22.8686 5.26863C23.1686 4.96857 23.5756 4.8 24 4.8H27.2C27.6243 4.8 28.0313 4.96857 28.3313 5.26863C28.6314 5.56869 28.8 5.97566 28.8 6.4V25.6C28.8 26.0243 28.6314 26.4313 28.3313 26.7314C28.0313 27.0314 27.6243 27.2 27.2 27.2H24C23.5756 27.2 23.1686 27.0314 22.8686 26.7314C22.5685 26.4313 22.4 26.0243 22.4 25.6V6.4Z" fill="white"/>
</svg>
