<svg width="36" height="36" viewBox="0 0 36 36" fill="none" xmlns="http://www.w3.org/2000/svg">
<path d="M32.9206 16.4115C32.7817 15.8166 32.5156 15.2588 32.1406 14.7765C31.7602 14.2973 31.2788 13.9081 30.7306 13.6365C30.2993 13.4231 29.8305 13.2957 29.3506 13.2615C29.106 10.6367 27.9427 8.18243 26.0656 6.3315C23.9281 4.19726 21.0311 2.99853 18.0106 2.99853C14.99 2.99853 12.093 4.19726 9.95556 6.3315C8.07845 8.18243 6.91508 10.6367 6.67056 13.2615C6.19058 13.2957 5.72185 13.4231 5.29056 13.6365C4.73988 13.9042 4.25761 14.2941 3.88056 14.7765C3.50192 15.2572 3.23539 15.8164 3.10045 16.4133C2.9655 17.0102 2.96554 17.6296 3.10056 18.2265L5.45556 27.8715C5.8609 29.3493 6.74163 30.6525 7.96168 31.5798C9.18172 32.507 10.6732 33.0066 12.2056 33.0015H23.7706C25.3082 33.0031 26.8036 32.4988 28.0262 31.5662C29.2488 30.6337 30.1306 29.3248 30.5356 27.8415L32.8756 18.2265C33.0256 17.6325 33.0406 17.0115 32.9206 16.4115ZM13.2706 26.0415C13.2706 26.3399 13.152 26.626 12.9411 26.837C12.7301 27.048 12.4439 27.1665 12.1456 27.1665C11.8472 27.1665 11.561 27.048 11.3501 26.837C11.1391 26.626 11.0206 26.3399 11.0206 26.0415V20.1315C11.0206 19.8331 11.1391 19.547 11.3501 19.336C11.561 19.125 11.8472 19.0065 12.1456 19.0065C12.4439 19.0065 12.7301 19.125 12.9411 19.336C13.152 19.547 13.2706 19.8331 13.2706 20.1315V26.0415ZM19.1356 26.0415C19.1356 26.1892 19.1065 26.3355 19.0499 26.472C18.9934 26.6085 18.9105 26.7325 18.8061 26.837C18.7016 26.9415 18.5776 27.0243 18.4411 27.0809C18.3046 27.1374 18.1583 27.1665 18.0106 27.1665C17.8628 27.1665 17.7165 27.1374 17.58 27.0809C17.4436 27.0243 17.3195 26.9415 17.2151 26.837C17.1106 26.7325 17.0277 26.6085 16.9712 26.472C16.9147 26.3355 16.8856 26.1892 16.8856 26.0415V20.1315C16.8856 19.8331 17.0041 19.547 17.2151 19.336C17.426 19.125 17.7122 19.0065 18.0106 19.0065C18.3089 19.0065 18.5951 19.125 18.8061 19.336C19.017 19.547 19.1356 19.8331 19.1356 20.1315V26.0415ZM25.0006 26.0415C25.0006 26.3399 24.882 26.626 24.6711 26.837C24.4601 27.048 24.1739 27.1665 23.8756 27.1665C23.5772 27.1665 23.291 27.048 23.0801 26.837C22.8691 26.626 22.7506 26.3399 22.7506 26.0415V20.1315C22.7506 19.8331 22.8691 19.547 23.0801 19.336C23.291 19.125 23.5772 19.0065 23.8756 19.0065C24.1739 19.0065 24.4601 19.125 24.6711 19.336C24.882 19.547 25.0006 19.8331 25.0006 20.1315V26.0415ZM8.93556 13.2315C9.18226 11.2179 10.102 9.34676 11.5456 7.9215C13.263 6.21227 15.5875 5.25273 18.0106 5.25273C20.4336 5.25273 22.7581 6.21227 24.4756 7.9215C25.9191 9.34676 26.8389 11.2179 27.0856 13.2315H8.93556Z" fill="white"/>
</svg>
