<svg width="35" height="35" viewBox="0 0 35 35" fill="none" xmlns="http://www.w3.org/2000/svg">
<path d="M17.5 14.5833C16.9231 14.5833 16.3592 14.7544 15.8796 15.0749C15.3999 15.3954 15.0261 15.8509 14.8054 16.3838C14.5846 16.9168 14.5268 17.5032 14.6394 18.069C14.7519 18.6348 15.0297 19.1545 15.4376 19.5624C15.8455 19.9703 16.3652 20.2481 16.931 20.3606C17.4968 20.4732 18.0832 20.4154 18.6162 20.1947C19.1491 19.9739 19.6046 19.6001 19.9251 19.1204C20.2456 18.6408 20.4167 18.0769 20.4167 17.5C20.4167 16.7265 20.1094 15.9846 19.5624 15.4376C19.0154 14.8906 18.2735 14.5833 17.5 14.5833ZM7.29167 14.5833C6.71481 14.5833 6.1509 14.7544 5.67125 15.0749C5.19161 15.3954 4.81777 15.8509 4.59702 16.3838C4.37626 16.9168 4.3185 17.5032 4.43104 18.069C4.54358 18.6348 4.82137 19.1545 5.22927 19.5624C5.63718 19.9703 6.15688 20.2481 6.72265 20.3606C7.28843 20.4732 7.87488 20.4154 8.40783 20.1947C8.94078 19.9739 9.3963 19.6001 9.71679 19.1204C10.0373 18.6408 10.2083 18.0769 10.2083 17.5C10.2083 16.7265 9.90104 15.9846 9.35406 15.4376C8.80708 14.8906 8.06522 14.5833 7.29167 14.5833ZM27.7083 14.5833C27.1315 14.5833 26.5676 14.7544 26.0879 15.0749C25.6083 15.3954 25.2344 15.8509 25.0137 16.3838C24.7929 16.9168 24.7352 17.5032 24.8477 18.069C24.9603 18.6348 25.238 19.1545 25.6459 19.5624C26.0538 19.9703 26.5735 20.2481 27.1393 20.3606C27.7051 20.4732 28.2915 20.4154 28.8245 20.1947C29.3574 19.9739 29.813 19.6001 30.1335 19.1204C30.4539 18.6408 30.625 18.0769 30.625 17.5C30.625 16.7265 30.3177 15.9846 29.7707 15.4376C29.2237 14.8906 28.4819 14.5833 27.7083 14.5833Z" fill="white"/>
</svg>
