<svg width="32" height="32" viewBox="0 0 32 32" fill="none" xmlns="http://www.w3.org/2000/svg">
<path fill-rule="evenodd" clip-rule="evenodd" d="M3.19995 8C3.19995 7.15131 3.53709 6.33738 4.13721 5.73726C4.73733 5.13714 5.55126 4.8 6.39995 4.8H19.2C20.0486 4.8 20.8626 5.13714 21.4627 5.73726C22.0628 6.33738 22.4 7.15131 22.4 8V24C22.4 24.8487 22.7371 25.6626 23.3372 26.2627C23.9373 26.8629 24.7513 27.2 25.6 27.2H6.39995C5.55126 27.2 4.73733 26.8629 4.13721 26.2627C3.53709 25.6626 3.19995 24.8487 3.19995 24V8ZM7.99995 9.6H17.6V16H7.99995V9.6ZM17.6 19.2H7.99995V22.4H17.6V19.2Z" fill="white"/>
<path d="M24 11.2H25.6C26.4487 11.2 27.2626 11.5371 27.8627 12.1373C28.4629 12.7374 28.8 13.5513 28.8 14.4V23.2C28.8 23.8365 28.5471 24.447 28.0971 24.8971C27.647 25.3471 27.0365 25.6 26.4 25.6C25.7635 25.6 25.153 25.3471 24.7029 24.8971C24.2529 24.447 24 23.8365 24 23.2V11.2Z" fill="white"/>
</svg>
